<svg width="1440" height="1440" viewBox="0 0 1440 1440" fill="none" xmlns="http://www.w3.org/2000/svg">
<mask id="mask0_1306_284" style="mask-type:luminance" maskUnits="userSpaceOnUse" x="249" y="262" width="942" height="475">
<path d="M1191 486.435C1191 564.796 1154.84 629.846 1082.38 681.43C1044.11 708.813 995.401 727.116 936.551 736.344C935.493 731.654 933.527 726.813 930.653 722.275C928.081 718.341 927.929 717.889 931.712 713.35C943.662 699.584 945.933 682.489 946.538 667.513C946.69 664.638 947.597 661.009 949.109 657.074C950.924 652.385 951.831 648.15 951.831 643.914C951.831 639.981 951.075 636.35 949.412 632.871C983.599 594.296 1000.69 546.492 1000.69 489.158C1000.69 433.489 983.903 391.282 950.32 362.54C934.586 348.773 915.98 338.184 895.101 330.923C875.134 324.115 854.106 321.392 833.081 321.09L720.076 318.82V348.622C707.975 347.412 694.963 347.11 680.744 347.714C644.589 349.379 608.282 358.152 576.062 373.279C563.959 378.877 552.461 385.231 541.722 392.341V318.82H444.751C387.722 318.82 347.482 332.738 323.429 361.026C299.225 389.012 285.155 430.009 280.467 484.317H249V262.999L854.561 264.058H854.712C964.388 265.42 1046.98 285.54 1103.26 324.872C1161.5 365.867 1191 419.42 1191 486.435Z" fill="white"/>
</mask>
<g mask="url(#mask0_1306_284)">
<path d="M1191 486.435C1191 564.796 1154.84 629.846 1082.38 681.43C1044.11 708.813 995.401 727.116 936.551 736.344C935.493 731.654 933.527 726.813 930.653 722.275C928.081 718.341 927.929 717.889 931.712 713.35C943.662 699.584 945.933 682.489 946.538 667.513C946.69 664.638 947.597 661.009 949.109 657.074C950.924 652.385 951.831 648.15 951.831 643.914C951.831 639.981 951.075 636.35 949.412 632.871C983.599 594.296 1000.69 546.492 1000.69 489.158C1000.69 433.489 983.903 391.282 950.32 362.54C934.586 348.773 915.98 338.184 895.101 330.923C875.134 324.115 854.106 321.392 833.081 321.09L720.076 318.82V348.622C707.975 347.412 694.963 347.11 680.744 347.714C644.589 349.379 608.282 358.152 576.062 373.279C563.959 378.877 552.461 385.231 541.722 392.341V318.82H444.751C387.722 318.82 347.482 332.738 323.429 361.026C299.225 389.012 285.155 430.009 280.467 484.317H249V262.999L854.561 264.058H854.712C964.388 265.42 1046.98 285.54 1103.26 324.872C1161.5 365.867 1191 419.42 1191 486.435Z" fill="url(#paint0_linear_1306_284)"/>
</g>
<mask id="mask1_1306_284" style="mask-type:luminance" maskUnits="userSpaceOnUse" x="756" y="326" width="133" height="163">
<path d="M846.306 488.309C860.888 472.897 862.318 455.681 862.376 438.429C861.673 421.311 856.023 406.951 845.592 395.304C835.086 383.586 819.927 374.515 803.341 366.453L789.705 360.118C784.788 357.514 780.272 354.313 776.015 350.987C767.698 344.007 760.663 335.766 756.351 326.104C765.988 330.36 774.833 334.141 783.865 336.533C793.108 339.389 800.553 339.727 811.627 342.221C832.075 347.022 853.167 356.576 869.179 374.396C885.38 392.08 892.124 418.591 887.191 440.717C884.961 451.984 881.241 462.038 874.245 471.828C867.073 480.638 857.036 487.593 846.306 488.309Z" fill="white"/>
</mask>
<g mask="url(#mask1_1306_284)">
<path d="M846.306 488.309C860.888 472.897 862.318 455.681 862.376 438.429C861.673 421.311 856.023 406.951 845.592 395.304C835.086 383.586 819.927 374.515 803.341 366.453L789.705 360.118C784.788 357.514 780.272 354.313 776.015 350.987C767.698 344.007 760.663 335.766 756.351 326.104C765.988 330.36 774.833 334.141 783.865 336.533C793.108 339.389 800.553 339.727 811.627 342.221C832.075 347.022 853.167 356.576 869.179 374.396C885.38 392.08 892.124 418.591 887.191 440.717C884.961 451.984 881.241 462.038 874.245 471.828C867.073 480.638 857.036 487.593 846.306 488.309Z" fill="url(#paint1_linear_1306_284)"/>
</g>
<mask id="mask2_1306_284" style="mask-type:luminance" maskUnits="userSpaceOnUse" x="457" y="360" width="387" height="193">
<path d="M843.232 457.05C837.769 441.137 827.43 429.215 815.232 420.864C803.308 412.347 789.22 407.621 774.737 404.27C745.164 398.391 713.614 396.468 683.153 397.918C667.877 398.611 652.636 400.225 637.482 402.665L608.317 428.171C612.548 426.82 616.843 425.611 621.207 424.545C644.427 418.6 669.724 417.127 692.505 424.335C669.294 429.28 648.658 436.676 628.613 445.874C608.712 455.193 589.404 466.04 570.239 477.326C551.074 488.568 532.501 500.722 513.776 513.182L457.226 552.469C467.94 531.293 482.656 512.513 499.425 495.875C516.118 479.106 535.085 464.555 555.491 452.457C566.173 446.183 577.228 440.401 588.733 435.49C595.657 425.039 603.975 415.522 613.372 407.226C606.119 408.785 598.877 410.523 591.646 412.424C561.404 420.732 531.93 432.39 501.513 446.501C522.469 420.258 550.655 399.741 581.7 385.467C612.734 370.995 646.9 362.731 681.405 361.147C698.659 360.478 716.011 361.017 733.098 363.764C750.165 366.455 766.945 370.049 783.473 377.006C799.979 383.555 815.978 393.665 827.67 407.885C838.934 421.972 846.033 440.161 843.232 457.05Z" fill="white"/>
</mask>
<g mask="url(#mask2_1306_284)">
<path d="M843.232 457.05C837.769 441.137 827.43 429.215 815.232 420.864C803.308 412.347 789.22 407.621 774.737 404.27C745.164 398.391 713.614 396.468 683.153 397.918C667.877 398.611 652.636 400.225 637.482 402.665L608.317 428.171C612.548 426.82 616.843 425.611 621.207 424.545C644.427 418.6 669.724 417.127 692.505 424.335C669.294 429.28 648.658 436.676 628.613 445.874C608.712 455.193 589.404 466.04 570.239 477.326C551.074 488.568 532.501 500.722 513.776 513.182L457.226 552.469C467.94 531.293 482.656 512.513 499.425 495.875C516.118 479.106 535.085 464.555 555.491 452.457C566.173 446.183 577.228 440.401 588.733 435.49C595.657 425.039 603.975 415.522 613.372 407.226C606.119 408.785 598.877 410.523 591.646 412.424C561.404 420.732 531.93 432.39 501.513 446.501C522.469 420.258 550.655 399.741 581.7 385.467C612.734 370.995 646.9 362.731 681.405 361.147C698.659 360.478 716.011 361.017 733.098 363.764C750.165 366.455 766.945 370.049 783.473 377.006C799.979 383.555 815.978 393.665 827.67 407.885C838.934 421.972 846.033 440.161 843.232 457.05Z" fill="url(#paint2_linear_1306_284)"/>
</g>
<mask id="mask3_1306_284" style="mask-type:luminance" maskUnits="userSpaceOnUse" x="463" y="500" width="134" height="222">
<path d="M596.931 500.593C578.886 515.108 564.116 530.604 550.744 547.264C544.073 555.802 537.776 564.55 531.831 573.528C524.633 589.56 522.556 609.221 527.425 628.309C522.029 620.001 517.94 610.528 515.479 600.407C505.138 618.858 496.236 638.111 488.5 658.068C480.951 678.21 474.807 698.87 470.105 721.541C462.567 699.486 462.457 675.2 466.435 652.154C470.247 628.924 478.523 606.517 490.018 585.989C501.566 565.495 516.348 546.592 534.468 531.351C552.325 516.097 573.843 503.977 596.931 500.593Z" fill="white"/>
</mask>
<g mask="url(#mask3_1306_284)">
<path d="M596.931 500.593C578.886 515.108 564.116 530.604 550.744 547.264C544.073 555.802 537.776 564.55 531.831 573.528C524.633 589.56 522.556 609.221 527.425 628.309C522.029 620.001 517.94 610.528 515.479 600.407C505.138 618.858 496.236 638.111 488.5 658.068C480.951 678.21 474.807 698.87 470.105 721.541C462.567 699.486 462.457 675.2 466.435 652.154C470.247 628.924 478.523 606.517 490.018 585.989C501.566 565.495 516.348 546.592 534.468 531.351C552.325 516.097 573.843 503.977 596.931 500.593Z" fill="url(#paint3_linear_1306_284)"/>
</g>
<mask id="mask4_1306_284" style="mask-type:luminance" maskUnits="userSpaceOnUse" x="588" y="807" width="223" height="304">
<path d="M807.89 980.44C803.604 1001.81 793.812 1021.61 781.658 1039.04C769.703 1056.75 754.867 1071.87 739.46 1085.89L712.713 1110.26L718.142 1074.04C721.845 1049.36 721.669 1023.93 716.382 999.408C711.349 974.901 701.547 951.309 688.438 929.187C675.482 906.978 659.438 886.23 642.13 866.296C624.921 846.241 606.128 827.219 588.173 807.23C610.271 822.492 631.58 838.767 651.855 856.714C672.019 874.725 690.845 894.802 706.581 917.627C722.152 940.44 734.789 966.198 741.164 993.901C744.812 1009.95 746.801 1026.45 746.811 1042.96C752.274 1037.14 757.46 1031.14 762.329 1024.95C773.868 1009.88 783.461 993.463 789.044 975.639C794.45 957.814 796.077 938.693 793.165 919.462C790.493 900.209 783.856 881.187 776.207 862.384C788.373 878.615 798.637 896.691 804.835 916.847C810.945 936.891 812.516 959.188 807.89 980.44Z" fill="white"/>
</mask>
<g mask="url(#mask4_1306_284)">
<path d="M807.89 980.44C803.604 1001.81 793.812 1021.61 781.658 1039.04C769.703 1056.75 754.867 1071.87 739.46 1085.89L712.713 1110.26L718.142 1074.04C721.845 1049.36 721.669 1023.93 716.382 999.408C711.349 974.901 701.547 951.309 688.438 929.187C675.482 906.978 659.438 886.23 642.13 866.296C624.921 846.241 606.128 827.219 588.173 807.23C610.271 822.492 631.58 838.767 651.855 856.714C672.019 874.725 690.845 894.802 706.581 917.627C722.152 940.44 734.789 966.198 741.164 993.901C744.812 1009.95 746.801 1026.45 746.811 1042.96C752.274 1037.14 757.46 1031.14 762.329 1024.95C773.868 1009.88 783.461 993.463 789.044 975.639C794.45 957.814 796.077 938.693 793.165 919.462C790.493 900.209 783.856 881.187 776.207 862.384C788.373 878.615 798.637 896.691 804.835 916.847C810.945 936.891 812.516 959.188 807.89 980.44Z" fill="url(#paint4_linear_1306_284)"/>
</g>
<mask id="mask5_1306_284" style="mask-type:luminance" maskUnits="userSpaceOnUse" x="606" y="432" width="242" height="91">
<path d="M847.846 500.59C815.924 478.216 783.691 469.292 748.582 463.699C736.053 461.688 723.406 460.071 710.613 458.688C710.317 458.72 710.02 458.754 709.735 458.786C704.559 459.512 699.043 460.787 693.58 462.391C682.603 465.644 671.669 470.139 661.196 475.644C655.965 478.413 650.843 481.435 645.833 484.71C640.877 488.029 636.052 491.611 631.393 495.458C626.767 499.326 622.371 503.513 618.172 507.962C614.029 512.447 610.183 517.249 606.59 522.326C608.822 516.546 611.414 510.82 614.436 505.271C617.514 499.765 620.898 494.381 624.646 489.193C628.415 484.051 632.48 479.062 636.8 474.271C641.163 469.522 645.755 464.963 650.581 460.599C653.009 458.413 655.492 456.281 658.03 454.204L639.273 452.742C656.273 442.82 675.262 437.247 694.591 434.556C713.966 431.655 733.769 432.049 753.219 435.149C772.658 438.336 792.297 444.622 809.418 455.654C826.483 466.368 841.23 481.908 847.846 500.59Z" fill="white"/>
</mask>
<g mask="url(#mask5_1306_284)">
<path d="M847.846 500.59C815.924 478.216 783.691 469.292 748.582 463.699C736.053 461.688 723.406 460.071 710.613 458.688C710.317 458.72 710.02 458.754 709.735 458.786C704.559 459.512 699.043 460.787 693.58 462.391C682.603 465.644 671.669 470.139 661.196 475.644C655.965 478.413 650.843 481.435 645.833 484.71C640.877 488.029 636.052 491.611 631.393 495.458C626.767 499.326 622.371 503.513 618.172 507.962C614.029 512.447 610.183 517.249 606.59 522.326C608.822 516.546 611.414 510.82 614.436 505.271C617.514 499.765 620.898 494.381 624.646 489.193C628.415 484.051 632.48 479.062 636.8 474.271C641.163 469.522 645.755 464.963 650.581 460.599C653.009 458.413 655.492 456.281 658.03 454.204L639.273 452.742C656.273 442.82 675.262 437.247 694.591 434.556C713.966 431.655 733.769 432.049 753.219 435.149C772.658 438.336 792.297 444.622 809.418 455.654C826.483 466.368 841.23 481.908 847.846 500.59Z" fill="url(#paint5_linear_1306_284)"/>
</g>
<mask id="mask6_1306_284" style="mask-type:luminance" maskUnits="userSpaceOnUse" x="427" y="466" width="57" height="152">
<path d="M483.708 466.49C477.483 479.431 471.239 491.155 465.922 503.085C460.725 515.055 456.246 526.968 452.774 539.284C449.211 551.57 446.594 564.181 444.057 577.219C441.625 590.254 439.593 603.758 435.697 617.572C430.847 604.124 428.26 590.303 427.677 576.101C426.943 561.924 428.534 547.411 432.561 533.468C440.565 505.572 458.859 480.403 483.708 466.49Z" fill="white"/>
</mask>
<g mask="url(#mask6_1306_284)">
<path d="M483.708 466.49C477.483 479.431 471.239 491.155 465.922 503.085C460.725 515.055 456.246 526.968 452.774 539.284C449.211 551.57 446.594 564.181 444.057 577.219C441.625 590.254 439.593 603.758 435.697 617.572C430.847 604.124 428.26 590.303 427.677 576.101C426.943 561.924 428.534 547.411 432.561 533.468C440.565 505.572 458.859 480.403 483.708 466.49Z" fill="url(#paint6_linear_1306_284)"/>
</g>
<mask id="mask7_1306_284" style="mask-type:luminance" maskUnits="userSpaceOnUse" x="528" y="723" width="103" height="288">
<path d="M529.402 801.669C526.522 773.768 532.841 745.021 548.16 723.031C544.632 749.449 546.073 774.373 552.436 797.56C555.842 809.065 560.117 820.099 565.688 830.341C571.161 840.659 577.896 849.703 585.974 859.33C593.865 868.968 602.755 878.902 610.623 890.638C618.556 902.309 624.953 916.077 627.909 930.024C634.459 957.804 630.117 987.761 615.041 1010.05C618.128 983.585 614.546 958.792 605.512 937.067C600.667 926.233 595.041 916.606 587.524 907.396C580.139 898.089 571.424 888.869 562.776 878.484C554.238 868.188 545.677 855.99 540.073 842.769C534.357 829.626 530.633 815.714 529.402 801.669Z" fill="white"/>
</mask>
<g mask="url(#mask7_1306_284)">
<path d="M529.402 801.669C526.522 773.768 532.841 745.021 548.16 723.031C544.632 749.449 546.073 774.373 552.436 797.56C555.842 809.065 560.117 820.099 565.688 830.341C571.161 840.659 577.896 849.703 585.974 859.33C593.865 868.968 602.755 878.902 610.623 890.638C618.556 902.309 624.953 916.077 627.909 930.024C634.459 957.804 630.117 987.761 615.041 1010.05C618.128 983.585 614.546 958.792 605.512 937.067C600.667 926.233 595.041 916.606 587.524 907.396C580.139 898.089 571.424 888.869 562.776 878.484C554.238 868.188 545.677 855.99 540.073 842.769C534.357 829.626 530.633 815.714 529.402 801.669Z" fill="url(#paint7_linear_1306_284)"/>
</g>
<mask id="mask8_1306_284" style="mask-type:luminance" maskUnits="userSpaceOnUse" x="458" y="875" width="373" height="302">
<path d="M830.057 1145.09V1176.55H458.062V1145.09C490.898 1143.13 512.975 1135.71 524.327 1123.76C535.822 1111.51 541.723 1083.52 541.723 1039.2V875.968C543.536 877.628 545.349 878.99 547.163 880.353C548.679 882.628 550.492 884.891 552.459 887.166C556.251 891.705 560.174 896.243 563.965 900.474C568.504 905.771 572.888 910.76 577.119 915.903C583.471 923.617 588.614 932.09 593.009 942.233C601.482 962.497 604.35 984.893 601.625 1008.49L595.273 1063.25L626.131 1017.56C633.395 1006.83 638.538 994.42 641.56 981.255C644.285 987.761 647.461 993.662 650.186 998.805L651.549 1001.38C658.054 1013.63 660.626 1023.16 660.318 1034.51C660.472 1042.52 659.109 1051.45 657.604 1060.98C656.692 1066.73 655.637 1072.63 655.032 1078.83L650.186 1121.8L678.472 1089.11C692.549 1073.08 701.319 1056.74 705.407 1039.34C706.011 1036.32 706.462 1033.3 706.912 1030.27C707.528 1040.86 707.22 1051.75 706.011 1062.79L704.802 1072.18L693.758 1145.7L731.418 1111.51C734.143 1116.8 737.319 1121.19 740.957 1124.21C754.869 1136.31 784.375 1143.13 830.057 1145.09Z" fill="white"/>
</mask>
<g mask="url(#mask8_1306_284)">
<path d="M830.057 1145.09V1176.55H458.062V1145.09C490.898 1143.13 512.975 1135.71 524.327 1123.76C535.822 1111.51 541.723 1083.52 541.723 1039.2V875.968C543.536 877.628 545.349 878.99 547.163 880.353C548.679 882.628 550.492 884.891 552.459 887.166C556.251 891.705 560.174 896.243 563.965 900.474C568.504 905.771 572.888 910.76 577.119 915.903C583.471 923.617 588.614 932.09 593.009 942.233C601.482 962.497 604.35 984.893 601.625 1008.49L595.273 1063.25L626.131 1017.56C633.395 1006.83 638.538 994.42 641.56 981.255C644.285 987.761 647.461 993.662 650.186 998.805L651.549 1001.38C658.054 1013.63 660.626 1023.16 660.318 1034.51C660.472 1042.52 659.109 1051.45 657.604 1060.98C656.692 1066.73 655.637 1072.63 655.032 1078.83L650.186 1121.8L678.472 1089.11C692.549 1073.08 701.319 1056.74 705.407 1039.34C706.011 1036.32 706.462 1033.3 706.912 1030.27C707.528 1040.86 707.22 1051.75 706.011 1062.79L704.802 1072.18L693.758 1145.7L731.418 1111.51C734.143 1116.8 737.319 1121.19 740.957 1124.21C754.869 1136.31 784.375 1143.13 830.057 1145.09Z" fill="url(#paint8_linear_1306_284)"/>
</g>
<mask id="mask9_1306_284" style="mask-type:luminance" maskUnits="userSpaceOnUse" x="391" y="616" width="151" height="281">
<path d="M541.723 886.245V892.223C534.602 886.838 528.162 880.366 522.48 873.432C511.887 860.311 503.425 845.53 496.788 830.068C491.073 816.684 486.359 802.87 482.909 788.661C482.711 790.244 482.546 791.837 482.403 793.431C480.524 813.123 481.601 833.255 485.15 853.201L492.92 896.85L462.776 864.091C456.567 857.355 449.974 850.332 444.007 842.113C438.062 833.97 432.908 824.189 429.699 814.453C423.149 794.738 421.82 775.661 420.699 756.903C419.82 732.968 421.127 708.957 424.809 685.374C417.688 697.209 411.984 710.177 407.688 723.693C403.259 737.056 400.259 750.946 397.907 765.035C395.731 779.134 394.237 793.464 394.402 807.936C389.237 779.353 390.347 749.639 396.083 720.616C398.918 706.045 403.841 691.803 410.314 678.099C416.809 664.407 425.457 651.451 436.347 640.242L459.04 616.879L452.556 649.571C445.622 684.517 442.963 720.21 445.743 755.485C447.073 773.123 448.798 790.947 454.161 805.958C454.754 807.749 455.436 809.497 456.183 811.211C456.359 804.332 456.875 797.442 457.798 790.562C460.82 768.145 467.963 746.1 479.051 726.43L527.151 641.121L499.359 734.342C497.777 739.65 497.458 747.891 497.612 755.375C497.821 763.078 498.535 770.925 499.612 778.738C501.766 794.365 504.964 810.035 509.843 825.178C514.656 840.321 520.623 855.223 529.03 868.772C532.744 874.893 536.942 880.805 541.723 886.245Z" fill="white"/>
</mask>
<g mask="url(#mask9_1306_284)">
<path d="M541.723 886.245V892.223C534.602 886.838 528.162 880.366 522.48 873.432C511.887 860.311 503.425 845.53 496.788 830.068C491.073 816.684 486.359 802.87 482.909 788.661C482.711 790.244 482.546 791.837 482.403 793.431C480.524 813.123 481.601 833.255 485.15 853.201L492.92 896.85L462.776 864.091C456.567 857.355 449.974 850.332 444.007 842.113C438.062 833.97 432.908 824.189 429.699 814.453C423.149 794.738 421.82 775.661 420.699 756.903C419.82 732.968 421.127 708.957 424.809 685.374C417.688 697.209 411.984 710.177 407.688 723.693C403.259 737.056 400.259 750.946 397.907 765.035C395.731 779.134 394.237 793.464 394.402 807.936C389.237 779.353 390.347 749.639 396.083 720.616C398.918 706.045 403.841 691.803 410.314 678.099C416.809 664.407 425.457 651.451 436.347 640.242L459.04 616.879L452.556 649.571C445.622 684.517 442.963 720.21 445.743 755.485C447.073 773.123 448.798 790.947 454.161 805.958C454.754 807.749 455.436 809.497 456.183 811.211C456.359 804.332 456.875 797.442 457.798 790.562C460.82 768.145 467.963 746.1 479.051 726.43L527.151 641.121L499.359 734.342C497.777 739.65 497.458 747.891 497.612 755.375C497.821 763.078 498.535 770.925 499.612 778.738C501.766 794.365 504.964 810.035 509.843 825.178C514.656 840.321 520.623 855.223 529.03 868.772C532.744 874.893 536.942 880.805 541.723 886.245Z" fill="url(#paint9_linear_1306_284)"/>
</g>
<mask id="mask10_1306_284" style="mask-type:luminance" maskUnits="userSpaceOnUse" x="574" y="723" width="187" height="218">
<path d="M574.862 723.035C587.149 744.877 602.385 762.412 619.754 777.957C637.055 793.61 656.32 806.723 676.018 821.008C695.665 835.176 715.698 850.79 732.5 870.215C740.831 879.941 748.329 890.426 753.986 902.324C759.314 914.182 762.568 927.82 759.582 940.213C752.987 915.916 734.867 900.879 717.367 885.5C699.443 870.577 679.607 857.736 659.827 843.303C640.077 829.044 620.065 812.748 604.111 792.599C588.048 772.808 576.055 748.23 574.862 723.035Z" fill="white"/>
</mask>
<g mask="url(#mask10_1306_284)">
<path d="M574.862 723.035C587.149 744.877 602.385 762.412 619.754 777.957C637.055 793.61 656.32 806.723 676.018 821.008C695.665 835.176 715.698 850.79 732.5 870.215C740.831 879.941 748.329 890.426 753.986 902.324C759.314 914.182 762.568 927.82 759.582 940.213C752.987 915.916 734.867 900.879 717.367 885.5C699.443 870.577 679.607 857.736 659.827 843.303C640.077 829.044 620.065 812.748 604.111 792.599C588.048 772.808 576.055 748.23 574.862 723.035Z" fill="url(#paint10_linear_1306_284)"/>
</g>
<mask id="mask11_1306_284" style="mask-type:luminance" maskUnits="userSpaceOnUse" x="645" y="899" width="50" height="182">
<path d="M668.378 1080.33C670.228 1063.84 674.061 1048.69 673.839 1034.27C674.116 1019.79 670.314 1008.11 663.446 995.119C656.751 982.428 647.567 966.2 646.02 948.335C644.283 930.579 648.996 913.664 657.228 899.488C658.61 916.068 659.593 931.229 664.296 944.581C668.603 958.076 676.578 969.214 684.573 984.334C688.544 991.651 691.664 1000.55 693.344 1009.57C693.863 1014.13 694.204 1018.8 694.123 1023.32C693.623 1027.79 693.211 1032.31 692.289 1036.59C688.26 1053.79 679.132 1067.96 668.378 1080.33Z" fill="white"/>
</mask>
<g mask="url(#mask11_1306_284)">
<path d="M668.378 1080.33C670.228 1063.84 674.061 1048.69 673.839 1034.27C674.116 1019.79 670.314 1008.11 663.446 995.119C656.751 982.428 647.567 966.2 646.02 948.335C644.283 930.579 648.996 913.664 657.228 899.488C658.61 916.068 659.593 931.229 664.296 944.581C668.603 958.076 676.578 969.214 684.573 984.334C688.544 991.651 691.664 1000.55 693.344 1009.57C693.863 1014.13 694.204 1018.8 694.123 1023.32C693.623 1027.79 693.211 1032.31 692.289 1036.59C688.26 1053.79 679.132 1067.96 668.378 1080.33Z" fill="url(#paint11_linear_1306_284)"/>
</g>
<mask id="mask12_1306_284" style="mask-type:luminance" maskUnits="userSpaceOnUse" x="741" y="539" width="116" height="78">
<path d="M816.724 547.196C813.012 550.885 809.3 554.573 804.482 559.359C805.653 553.31 806.506 548.908 807.597 543.276C797.324 542.148 787.349 541.303 777.457 539.876C771.325 538.991 766.529 540.45 761.869 544.595C755.261 550.475 748.091 555.72 741.16 561.237C741.271 561.743 741.383 562.25 741.495 562.756C748.845 563.178 756.246 563.206 763.525 564.169C767.872 564.744 772.496 566.019 776.189 568.291C801.324 583.749 826.242 599.559 851.236 615.243C852.621 616.111 854.075 616.867 856.143 616.831C849.92 610.826 843.752 604.765 837.459 598.835C830.252 592.041 823.056 585.224 815.596 578.712C812.903 576.361 812.272 574.097 813.035 570.765C814.803 563.041 816.282 555.251 817.878 547.487C817.493 547.39 817.108 547.292 816.724 547.196Z" fill="white"/>
</mask>
<g mask="url(#mask12_1306_284)">
<path d="M816.724 547.196C813.012 550.885 809.3 554.573 804.482 559.359C805.653 553.31 806.506 548.908 807.597 543.276C797.324 542.148 787.349 541.303 777.457 539.876C771.325 538.991 766.529 540.45 761.869 544.595C755.261 550.475 748.091 555.72 741.16 561.237C741.271 561.743 741.383 562.25 741.495 562.756C748.845 563.178 756.246 563.206 763.525 564.169C767.872 564.744 772.496 566.019 776.189 568.291C801.324 583.749 826.242 599.559 851.236 615.243C852.621 616.111 854.075 616.867 856.143 616.831C849.92 610.826 843.752 604.765 837.459 598.835C830.252 592.041 823.056 585.224 815.596 578.712C812.903 576.361 812.272 574.097 813.035 570.765C814.803 563.041 816.282 555.251 817.878 547.487C817.493 547.39 817.108 547.292 816.724 547.196Z" fill="url(#paint12_linear_1306_284)"/>
</g>
<mask id="mask13_1306_284" style="mask-type:luminance" maskUnits="userSpaceOnUse" x="791" y="511" width="5" height="4">
<path d="M792.219 511.966C792.153 512.107 792.075 512.25 792 512.394C793.164 512.988 794.317 513.581 795.472 514.186C794.405 513.415 793.318 512.669 792.219 511.966Z" fill="white"/>
</mask>
<g mask="url(#mask13_1306_284)">
<path d="M792.219 511.966C792.153 512.107 792.075 512.25 792 512.394C793.164 512.988 794.317 513.581 795.472 514.186C794.405 513.415 793.318 512.669 792.219 511.966Z" fill="url(#paint13_linear_1306_284)"/>
</g>
<mask id="mask14_1306_284" style="mask-type:luminance" maskUnits="userSpaceOnUse" x="634" y="600" width="205" height="263">
<path d="M838.527 862.379C831.418 848.773 820.351 839.961 807.374 834.609C794.614 828.828 780.439 825.203 766.251 820.433C751.9 816.06 737.527 810.158 723.481 802.937C722.338 802.323 721.196 801.686 720.065 801.036C723.131 817.235 722.888 833.685 719.316 849.048C719.12 826.422 711.779 804.939 699.911 787.531C694.702 783.476 689.712 779.102 685.009 774.422C680.735 769.982 676.755 765.321 673.064 760.476C672.909 760.268 672.756 760.07 672.603 759.861C657.097 739.322 646.69 715.498 641.239 691.409C634.02 661.354 632.524 630.748 635.998 600.759C643.36 630.013 650.503 658.607 660.767 685.365C666.009 698.673 671.625 711.663 678.975 723.432C682.976 730.222 687.317 736.762 692.108 742.882C693.383 744.52 694.691 746.134 696.042 747.707C698.493 750.586 701.064 753.355 703.757 755.993C722.547 775.739 747.23 788.784 773.857 801.367C787.165 807.708 801.098 814.169 813.977 823.51C820.208 828.422 826.34 833.785 830.692 840.587C835.109 847.313 837.616 854.917 838.527 862.379Z" fill="white"/>
</mask>
<g mask="url(#mask14_1306_284)">
<path d="M838.527 862.379C831.418 848.773 820.351 839.961 807.374 834.609C794.614 828.828 780.439 825.203 766.251 820.433C751.9 816.06 737.527 810.158 723.481 802.937C722.338 802.323 721.196 801.686 720.065 801.036C723.131 817.235 722.888 833.685 719.316 849.048C719.12 826.422 711.779 804.939 699.911 787.531C694.702 783.476 689.712 779.102 685.009 774.422C680.735 769.982 676.755 765.321 673.064 760.476C672.909 760.268 672.756 760.07 672.603 759.861C657.097 739.322 646.69 715.498 641.239 691.409C634.02 661.354 632.524 630.748 635.998 600.759C643.36 630.013 650.503 658.607 660.767 685.365C666.009 698.673 671.625 711.663 678.975 723.432C682.976 730.222 687.317 736.762 692.108 742.882C693.383 744.52 694.691 746.134 696.042 747.707C698.493 750.586 701.064 753.355 703.757 755.993C722.547 775.739 747.23 788.784 773.857 801.367C787.165 807.708 801.098 814.169 813.977 823.51C820.208 828.422 826.34 833.785 830.692 840.587C835.109 847.313 837.616 854.917 838.527 862.379Z" fill="url(#paint14_linear_1306_284)"/>
</g>
<mask id="mask15_1306_284" style="mask-type:luminance" maskUnits="userSpaceOnUse" x="672" y="759" width="2" height="2">
<path d="M673.064 760.479C672.855 760.325 672.646 760.192 672.438 760.05L672.602 759.863C672.756 760.072 672.909 760.27 673.064 760.479Z" fill="white"/>
</mask>
<g mask="url(#mask15_1306_284)">
<path d="M673.064 760.479C672.855 760.325 672.646 760.192 672.438 760.05L672.602 759.863C672.756 760.072 672.909 760.27 673.064 760.479Z" fill="url(#paint15_linear_1306_284)"/>
</g>
<mask id="mask16_1306_284" style="mask-type:luminance" maskUnits="userSpaceOnUse" x="692" y="742" width="5" height="6">
<path d="M696.043 747.707C694.691 746.134 693.383 744.52 692.108 742.882C693.46 744.464 694.778 746.069 696.043 747.707Z" fill="white"/>
</mask>
<g mask="url(#mask16_1306_284)">
<path d="M696.043 747.707C694.691 746.134 693.383 744.52 692.108 742.882C693.46 744.464 694.778 746.069 696.043 747.707Z" fill="url(#paint16_linear_1306_284)"/>
</g>
<mask id="mask17_1306_284" style="mask-type:luminance" maskUnits="userSpaceOnUse" x="673" y="488" width="266" height="408">
<path d="M906.11 707.465C906.451 704.992 906.495 703.167 906.968 701.454C909.298 692.893 912.154 684.453 914.001 675.794C915.242 669.959 918.583 666.585 923.364 663.552C925.704 679.069 917.133 701.684 906.11 707.465ZM910.705 753.41C904.088 761.894 897.122 770.114 890.254 778.411C889.923 778.805 889.177 778.861 888.1 779.279C890.298 768.378 894.868 758.29 891.451 746.091C882.143 762.365 875.012 778.664 863.122 792.389C860.946 790.752 858.758 789.179 856.56 787.663C856.165 787.366 855.769 787.081 855.363 786.794C849.582 776.96 842.142 769.081 832.021 764.213C841.792 753.905 851.527 744.211 860.517 733.894C864.341 729.498 868.506 726.487 873.78 724.278C882.287 720.718 890.55 716.597 900.473 711.992C904.199 719.86 908.221 728.564 912.419 737.168C915.264 743.015 914.506 748.531 910.705 753.41ZM933.342 632.693C910.407 606.594 883.726 585.254 852.935 569.133C849.715 567.451 848.341 565.615 848.714 561.781C849.626 552.428 846.219 544.265 840.56 536.99C837.153 532.594 833.604 528.308 829.66 523.407C831.077 522.12 832.362 520.781 833.55 519.385C831.165 517.45 828.736 515.571 826.274 513.758C818.506 508.044 810.538 503.33 802.066 499.901C802.032 499.889 801.988 499.867 801.944 499.857C773.955 487.274 743.362 486.363 715.548 491.988C742.999 491.407 770.691 497.791 792.219 511.967C793.318 512.671 794.405 513.417 795.472 514.187C795.482 514.187 795.494 514.197 795.504 514.209C796.231 514.594 796.956 514.977 797.68 515.374C804.077 518.803 810.318 522.505 816.187 526.682C828.78 535.638 839.285 547.067 836.67 564.628C835.879 569.913 837.967 572 842.307 574.276C871.154 589.386 896.901 608.682 919.319 632.375C920.936 634.079 923.187 635.188 925.132 636.574C924.573 637.594 924.011 638.618 923.452 639.651C912.088 639.848 900.716 640.376 889.352 640.145C877.935 639.925 866.539 638.936 853.977 638.21C855.528 640.211 856.121 641.353 857.034 642.112C869.715 652.705 882.209 663.552 898.056 669.463C900.1 670.221 903.1 672.782 902.979 674.299C901.89 687.838 898.77 700.882 885.034 707.245C876.549 711.178 867.329 713.575 858.395 716.52C849.803 719.344 841.175 722.025 832.539 724.706C829.033 725.795 825.428 726.585 821.934 727.728C819.614 728.486 816.945 729.101 815.263 730.684C809.857 735.739 804.845 741.211 799.692 746.52C801.176 740.662 803.121 735.101 805.922 729.992C808.439 725.377 808.132 722.145 803.417 719.575C802.483 719.069 801.659 718.365 800.736 717.718C792.944 723.047 785.295 728.299 777.681 733.531C776.901 732.838 776.119 732.135 775.351 731.443C780.89 725.08 786.461 718.751 791.779 712.212C793.143 710.531 793.626 707.706 793.483 705.475C793.427 704.783 789.944 703.76 788.077 703.838C780.472 704.157 772.888 704.893 765.284 705.344C762.383 705.519 759.461 705.355 756.549 705.344C766.703 700.782 776.813 697.135 787.055 693.892C791.021 692.64 792.603 690.904 793.505 686.474C794.592 681.124 797.427 675.738 800.78 671.342C804.22 666.849 809.197 663.552 813.504 659.728C817.713 656.001 821.934 652.288 826.142 648.562C825.802 647.881 825.462 647.188 825.121 646.508C809.297 652.111 793.471 657.716 776.647 663.684C781.67 657.53 785.988 652.244 790.307 646.957C776.615 649.661 763.756 653.166 750.988 657.012C739.526 660.453 729.702 657.628 721.12 649.816C718.305 647.244 715.691 644.541 713.262 641.715C710.68 635.596 708.305 629.353 706.151 623.024C702.371 611.979 699.207 600.672 696.58 589.133C702.229 571.825 710.79 556.177 725.866 544.287C730.449 540.681 734.24 536.078 738.395 531.935L737.57 530.462C721.482 536.001 705.383 541.539 689.295 547.078C687.656 533.836 686.526 520.351 685.799 506.671C672.843 545.616 670.162 588.639 678.493 630.376C686.645 672.144 706.35 712.552 736.241 744.41C751.021 760.323 768.9 774.147 787.461 784.587C806.077 794.762 824.187 803.422 841.462 812.104C858.594 821.114 874.307 830.862 887.375 844.577C900.628 857.895 910.758 874.686 913.462 895.182C919.21 875.039 912.956 852.114 901.78 833.653C895.386 823.126 887.276 813.598 878.309 805.147C891.956 792.719 904.496 779.169 915.925 764.497C924.649 753.299 927.055 741.663 919.319 729.531C913.319 720.113 914.099 713.157 921.561 704.54C930.573 694.113 932.462 680.508 933.046 666.849C933.264 661.871 934.704 656.75 936.539 652.067C939.605 644.266 938.947 639.068 933.342 632.693Z" fill="white"/>
</mask>
<g mask="url(#mask17_1306_284)">
<path d="M906.11 707.465C906.451 704.992 906.495 703.167 906.968 701.454C909.298 692.893 912.154 684.453 914.001 675.794C915.242 669.959 918.583 666.585 923.364 663.552C925.704 679.069 917.133 701.684 906.11 707.465ZM910.705 753.41C904.088 761.894 897.122 770.114 890.254 778.411C889.923 778.805 889.177 778.861 888.1 779.279C890.298 768.378 894.868 758.29 891.451 746.091C882.143 762.365 875.012 778.664 863.122 792.389C860.946 790.752 858.758 789.179 856.56 787.663C856.165 787.366 855.769 787.081 855.363 786.794C849.582 776.96 842.142 769.081 832.021 764.213C841.792 753.905 851.527 744.211 860.517 733.894C864.341 729.498 868.506 726.487 873.78 724.278C882.287 720.718 890.55 716.597 900.473 711.992C904.199 719.86 908.221 728.564 912.419 737.168C915.264 743.015 914.506 748.531 910.705 753.41ZM933.342 632.693C910.407 606.594 883.726 585.254 852.935 569.133C849.715 567.451 848.341 565.615 848.714 561.781C849.626 552.428 846.219 544.265 840.56 536.99C837.153 532.594 833.604 528.308 829.66 523.407C831.077 522.12 832.362 520.781 833.55 519.385C831.165 517.45 828.736 515.571 826.274 513.758C818.506 508.044 810.538 503.33 802.066 499.901C802.032 499.889 801.988 499.867 801.944 499.857C773.955 487.274 743.362 486.363 715.548 491.988C742.999 491.407 770.691 497.791 792.219 511.967C793.318 512.671 794.405 513.417 795.472 514.187C795.482 514.187 795.494 514.197 795.504 514.209C796.231 514.594 796.956 514.977 797.68 515.374C804.077 518.803 810.318 522.505 816.187 526.682C828.78 535.638 839.285 547.067 836.67 564.628C835.879 569.913 837.967 572 842.307 574.276C871.154 589.386 896.901 608.682 919.319 632.375C920.936 634.079 923.187 635.188 925.132 636.574C924.573 637.594 924.011 638.618 923.452 639.651C912.088 639.848 900.716 640.376 889.352 640.145C877.935 639.925 866.539 638.936 853.977 638.21C855.528 640.211 856.121 641.353 857.034 642.112C869.715 652.705 882.209 663.552 898.056 669.463C900.1 670.221 903.1 672.782 902.979 674.299C901.89 687.838 898.77 700.882 885.034 707.245C876.549 711.178 867.329 713.575 858.395 716.52C849.803 719.344 841.175 722.025 832.539 724.706C829.033 725.795 825.428 726.585 821.934 727.728C819.614 728.486 816.945 729.101 815.263 730.684C809.857 735.739 804.845 741.211 799.692 746.52C801.176 740.662 803.121 735.101 805.922 729.992C808.439 725.377 808.132 722.145 803.417 719.575C802.483 719.069 801.659 718.365 800.736 717.718C792.944 723.047 785.295 728.299 777.681 733.531C776.901 732.838 776.119 732.135 775.351 731.443C780.89 725.08 786.461 718.751 791.779 712.212C793.143 710.531 793.626 707.706 793.483 705.475C793.427 704.783 789.944 703.76 788.077 703.838C780.472 704.157 772.888 704.893 765.284 705.344C762.383 705.519 759.461 705.355 756.549 705.344C766.703 700.782 776.813 697.135 787.055 693.892C791.021 692.64 792.603 690.904 793.505 686.474C794.592 681.124 797.427 675.738 800.78 671.342C804.22 666.849 809.197 663.552 813.504 659.728C817.713 656.001 821.934 652.288 826.142 648.562C825.802 647.881 825.462 647.188 825.121 646.508C809.297 652.111 793.471 657.716 776.647 663.684C781.67 657.53 785.988 652.244 790.307 646.957C776.615 649.661 763.756 653.166 750.988 657.012C739.526 660.453 729.702 657.628 721.12 649.816C718.305 647.244 715.691 644.541 713.262 641.715C710.68 635.596 708.305 629.353 706.151 623.024C702.371 611.979 699.207 600.672 696.58 589.133C702.229 571.825 710.79 556.177 725.866 544.287C730.449 540.681 734.24 536.078 738.395 531.935L737.57 530.462C721.482 536.001 705.383 541.539 689.295 547.078C687.656 533.836 686.526 520.351 685.799 506.671C672.843 545.616 670.162 588.639 678.493 630.376C686.645 672.144 706.35 712.552 736.241 744.41C751.021 760.323 768.9 774.147 787.461 784.587C806.077 794.762 824.187 803.422 841.462 812.104C858.594 821.114 874.307 830.862 887.375 844.577C900.628 857.895 910.758 874.686 913.462 895.182C919.21 875.039 912.956 852.114 901.78 833.653C895.386 823.126 887.276 813.598 878.309 805.147C891.956 792.719 904.496 779.169 915.925 764.497C924.649 753.299 927.055 741.663 919.319 729.531C913.319 720.113 914.099 713.157 921.561 704.54C930.573 694.113 932.462 680.508 933.046 666.849C933.264 661.871 934.704 656.75 936.539 652.067C939.605 644.266 938.947 639.068 933.342 632.693Z" fill="url(#paint17_linear_1306_284)"/>
</g>
<mask id="mask18_1306_284" style="mask-type:luminance" maskUnits="userSpaceOnUse" x="795" y="514" width="3" height="2">
<path d="M797.681 515.373L797.495 515.67C796.835 515.175 796.175 514.692 795.505 514.208C796.231 514.593 796.957 514.976 797.681 515.373Z" fill="white"/>
</mask>
<g mask="url(#mask18_1306_284)">
<path d="M797.681 515.373L797.495 515.67C796.835 515.175 796.175 514.692 795.505 514.208C796.231 514.593 796.957 514.976 797.681 515.373Z" fill="url(#paint18_linear_1306_284)"/>
</g>
<mask id="mask19_1306_284" style="mask-type:luminance" maskUnits="userSpaceOnUse" x="553" y="519" width="102" height="254">
<path d="M617.613 722.914C626.118 740.254 636.81 756.662 647.559 772.969C635.228 757.827 622.909 742.584 612.437 725.781C601.844 709.222 593.734 690.101 589.71 670.517C585.36 651.232 582.624 631.495 582.327 611.374C579.161 618.352 576.338 625.571 573.865 633.023C568.964 647.758 565.765 663.187 563.018 680.375C554.842 664.913 552.259 646.836 553.567 629.089C555.085 611.33 560.71 593.769 569.942 578.22C579.161 562.747 592.239 549.142 607.086 539.746C621.965 530.307 637.712 523.877 654.603 519.911C643.372 533.23 630.866 544.185 620.139 555.702C616.371 559.582 612.855 563.516 609.547 567.537C604.271 581.065 601.436 596.253 600.062 611.528C598.392 630.265 599.051 649.472 601.37 668.452C603.337 687.496 608.91 705.551 617.613 722.914Z" fill="white"/>
</mask>
<g mask="url(#mask19_1306_284)">
<path d="M617.613 722.914C626.118 740.254 636.81 756.662 647.559 772.969C635.228 757.827 622.909 742.584 612.437 725.781C601.844 709.222 593.734 690.101 589.71 670.517C585.36 651.232 582.624 631.495 582.327 611.374C579.161 618.352 576.338 625.571 573.865 633.023C568.964 647.758 565.765 663.187 563.018 680.375C554.842 664.913 552.259 646.836 553.567 629.089C555.085 611.33 560.71 593.769 569.942 578.22C579.161 562.747 592.239 549.142 607.086 539.746C621.965 530.307 637.712 523.877 654.603 519.911C643.372 533.23 630.866 544.185 620.139 555.702C616.371 559.582 612.855 563.516 609.547 567.537C604.271 581.065 601.436 596.253 600.062 611.528C598.392 630.265 599.051 649.472 601.37 668.452C603.337 687.496 608.91 705.551 617.613 722.914Z" fill="url(#paint19_linear_1306_284)"/>
</g>
<mask id="mask20_1306_284" style="mask-type:luminance" maskUnits="userSpaceOnUse" x="816" y="831" width="80" height="167">
<path d="M892.374 935.342L884.968 960.98L880.242 938.727C879.133 944.299 877.329 949.748 874.835 954.914C866.792 971.717 852.263 985.09 834.812 991.277L816.548 997.76L826.264 981.365C836.351 964.343 841.286 943.979 839.846 923.705C838.352 903.43 830.691 883.21 817.407 866.395C833.638 880.342 845.252 900.518 849.088 922.54C851.704 937.375 850.88 952.903 846.737 967.596C852.759 962.232 857.714 955.694 861.045 948.441C867.023 935.187 868.307 919.44 863.637 905.507L852.56 872.483L876.089 898.055C879.143 901.386 881.825 905.012 884.088 908.869C884.769 898.43 883.594 887.78 880.528 877.583C875.21 859.846 863.968 843.593 848.539 831.615C866.078 840.274 880.638 855.803 888.758 874.561C896.857 893.363 898.187 915.21 892.374 935.342Z" fill="white"/>
</mask>
<g mask="url(#mask20_1306_284)">
<path d="M892.374 935.342L884.968 960.98L880.242 938.727C879.133 944.299 877.329 949.748 874.835 954.914C866.792 971.717 852.263 985.09 834.812 991.277L816.548 997.76L826.264 981.365C836.351 964.343 841.286 943.979 839.846 923.705C838.352 903.43 830.691 883.21 817.407 866.395C833.638 880.342 845.252 900.518 849.088 922.54C851.704 937.375 850.88 952.903 846.737 967.596C852.759 962.232 857.714 955.694 861.045 948.441C867.023 935.187 868.307 919.44 863.637 905.507L852.56 872.483L876.089 898.055C879.143 901.386 881.825 905.012 884.088 908.869C884.769 898.43 883.594 887.78 880.528 877.583C875.21 859.846 863.968 843.593 848.539 831.615C866.078 840.274 880.638 855.803 888.758 874.561C896.857 893.363 898.187 915.21 892.374 935.342Z" fill="url(#paint20_linear_1306_284)"/>
</g>
<defs>
<linearGradient id="paint0_linear_1306_284" x1="720" y1="217.532" x2="720" y2="1103.13" gradientUnits="userSpaceOnUse">
<stop stop-color="#EE252C"/>
<stop offset="1" stop-color="#751519"/>
</linearGradient>
<linearGradient id="paint1_linear_1306_284" x1="974.384" y1="240.087" x2="386.814" y2="827.657" gradientUnits="userSpaceOnUse">
<stop stop-color="#B27D1F"/>
<stop offset="0.0854749" stop-color="#B27D1F"/>
<stop offset="0.322346" stop-color="#ECD960"/>
<stop offset="0.572626" stop-color="#B58823"/>
<stop offset="1" stop-color="#AB7C26"/>
</linearGradient>
<linearGradient id="paint2_linear_1306_284" x1="928.811" y1="194.51" x2="341.241" y2="782.08" gradientUnits="userSpaceOnUse">
<stop stop-color="#B27D1F"/>
<stop offset="0.0854749" stop-color="#B27D1F"/>
<stop offset="0.322346" stop-color="#ECD960"/>
<stop offset="0.572626" stop-color="#B58823"/>
<stop offset="1" stop-color="#AB7C26"/>
</linearGradient>
<linearGradient id="paint3_linear_1306_284" x1="931.287" y1="196.991" x2="343.718" y2="784.56" gradientUnits="userSpaceOnUse">
<stop stop-color="#B27D1F"/>
<stop offset="0.0854749" stop-color="#B27D1F"/>
<stop offset="0.322346" stop-color="#ECD960"/>
<stop offset="0.572626" stop-color="#B58823"/>
<stop offset="1" stop-color="#AB7C26"/>
</linearGradient>
<linearGradient id="paint4_linear_1306_284" x1="1172.51" y1="438.216" x2="584.938" y2="1025.79" gradientUnits="userSpaceOnUse">
<stop stop-color="#B27D1F"/>
<stop offset="0.0854749" stop-color="#B27D1F"/>
<stop offset="0.322346" stop-color="#ECD960"/>
<stop offset="0.572626" stop-color="#B58823"/>
<stop offset="1" stop-color="#AB7C26"/>
</linearGradient>
<linearGradient id="paint5_linear_1306_284" x1="977.263" y1="242.962" x2="389.693" y2="830.531" gradientUnits="userSpaceOnUse">
<stop stop-color="#B27D1F"/>
<stop offset="0.0854749" stop-color="#B27D1F"/>
<stop offset="0.322346" stop-color="#ECD960"/>
<stop offset="0.572626" stop-color="#B58823"/>
<stop offset="1" stop-color="#AB7C26"/>
</linearGradient>
<linearGradient id="paint6_linear_1306_284" x1="866.719" y1="132.427" x2="279.149" y2="719.997" gradientUnits="userSpaceOnUse">
<stop stop-color="#B27D1F"/>
<stop offset="0.0854749" stop-color="#B27D1F"/>
<stop offset="0.322346" stop-color="#ECD960"/>
<stop offset="0.572626" stop-color="#B58823"/>
<stop offset="1" stop-color="#AB7C26"/>
</linearGradient>
<linearGradient id="paint7_linear_1306_284" x1="1091.22" y1="356.919" x2="503.65" y2="944.489" gradientUnits="userSpaceOnUse">
<stop stop-color="#B27D1F"/>
<stop offset="0.0854749" stop-color="#B27D1F"/>
<stop offset="0.322346" stop-color="#ECD960"/>
<stop offset="0.572626" stop-color="#B58823"/>
<stop offset="1" stop-color="#AB7C26"/>
</linearGradient>
<linearGradient id="paint8_linear_1306_284" x1="458.062" y1="1026.26" x2="830.057" y2="1026.26" gradientUnits="userSpaceOnUse">
<stop stop-color="#EE252C"/>
<stop offset="1" stop-color="#751519"/>
</linearGradient>
<linearGradient id="paint9_linear_1306_284" x1="994.613" y1="260.319" x2="407.044" y2="847.888" gradientUnits="userSpaceOnUse">
<stop stop-color="#B27D1F"/>
<stop offset="0.0854749" stop-color="#B27D1F"/>
<stop offset="0.322346" stop-color="#ECD960"/>
<stop offset="0.572626" stop-color="#B58823"/>
<stop offset="1" stop-color="#AB7C26"/>
</linearGradient>
<linearGradient id="paint10_linear_1306_284" x1="1116.57" y1="382.274" x2="529.002" y2="969.844" gradientUnits="userSpaceOnUse">
<stop stop-color="#B27D1F"/>
<stop offset="0.0854749" stop-color="#B27D1F"/>
<stop offset="0.322346" stop-color="#ECD960"/>
<stop offset="0.572626" stop-color="#B58823"/>
<stop offset="1" stop-color="#AB7C26"/>
</linearGradient>
<linearGradient id="paint11_linear_1306_284" x1="1193.51" y1="459.205" x2="605.937" y2="1046.77" gradientUnits="userSpaceOnUse">
<stop stop-color="#B27D1F"/>
<stop offset="0.0854749" stop-color="#B27D1F"/>
<stop offset="0.322346" stop-color="#ECD960"/>
<stop offset="0.572626" stop-color="#B58823"/>
<stop offset="1" stop-color="#AB7C26"/>
</linearGradient>
<linearGradient id="paint12_linear_1306_284" x1="1060.99" y1="326.692" x2="473.424" y2="914.261" gradientUnits="userSpaceOnUse">
<stop stop-color="#B27D1F"/>
<stop offset="0.0854749" stop-color="#B27D1F"/>
<stop offset="0.322346" stop-color="#ECD960"/>
<stop offset="0.572626" stop-color="#B58823"/>
<stop offset="1" stop-color="#AB7C26"/>
</linearGradient>
<linearGradient id="paint13_linear_1306_284" x1="1020.61" y1="286.309" x2="433.035" y2="873.88" gradientUnits="userSpaceOnUse">
<stop stop-color="#B27D1F"/>
<stop offset="0.0854749" stop-color="#B27D1F"/>
<stop offset="0.322346" stop-color="#ECD960"/>
<stop offset="0.572626" stop-color="#B58823"/>
<stop offset="1" stop-color="#AB7C26"/>
</linearGradient>
<linearGradient id="paint14_linear_1306_284" x1="1101.56" y1="367.268" x2="513.994" y2="954.837" gradientUnits="userSpaceOnUse">
<stop stop-color="#B27D1F"/>
<stop offset="0.0854749" stop-color="#B27D1F"/>
<stop offset="0.322346" stop-color="#ECD960"/>
<stop offset="0.572626" stop-color="#B58823"/>
<stop offset="1" stop-color="#AB7C26"/>
</linearGradient>
<linearGradient id="paint15_linear_1306_284" x1="1083.66" y1="349.383" x2="496.134" y2="936.973" gradientUnits="userSpaceOnUse">
<stop stop-color="#B27D1F"/>
<stop offset="0.0854749" stop-color="#B27D1F"/>
<stop offset="0.322346" stop-color="#ECD960"/>
<stop offset="0.572626" stop-color="#B58823"/>
<stop offset="1" stop-color="#AB7C26"/>
</linearGradient>
<linearGradient id="paint16_linear_1306_284" x1="1086.84" y1="352.535" x2="499.264" y2="940.11" gradientUnits="userSpaceOnUse">
<stop stop-color="#B27D1F"/>
<stop offset="0.0854749" stop-color="#B27D1F"/>
<stop offset="0.322346" stop-color="#ECD960"/>
<stop offset="0.572626" stop-color="#B58823"/>
<stop offset="1" stop-color="#AB7C26"/>
</linearGradient>
<linearGradient id="paint17_linear_1306_284" x1="1117.43" y1="383.13" x2="529.856" y2="970.7" gradientUnits="userSpaceOnUse">
<stop stop-color="#B27D1F"/>
<stop offset="0.0854749" stop-color="#B27D1F"/>
<stop offset="0.322346" stop-color="#ECD960"/>
<stop offset="0.572626" stop-color="#B58823"/>
<stop offset="1" stop-color="#AB7C26"/>
</linearGradient>
<linearGradient id="paint18_linear_1306_284" x1="1022.87" y1="288.565" x2="435.284" y2="876.129" gradientUnits="userSpaceOnUse">
<stop stop-color="#B27D1F"/>
<stop offset="0.0854749" stop-color="#B27D1F"/>
<stop offset="0.322346" stop-color="#ECD960"/>
<stop offset="0.572626" stop-color="#B58823"/>
<stop offset="1" stop-color="#AB7C26"/>
</linearGradient>
<linearGradient id="paint19_linear_1306_284" x1="1008.05" y1="273.753" x2="420.481" y2="861.323" gradientUnits="userSpaceOnUse">
<stop stop-color="#B27D1F"/>
<stop offset="0.0854749" stop-color="#B27D1F"/>
<stop offset="0.322346" stop-color="#ECD960"/>
<stop offset="0.572626" stop-color="#B58823"/>
<stop offset="1" stop-color="#AB7C26"/>
</linearGradient>
<linearGradient id="paint20_linear_1306_284" x1="1248.68" y1="514.375" x2="661.108" y2="1101.94" gradientUnits="userSpaceOnUse">
<stop stop-color="#B27D1F"/>
<stop offset="0.0854749" stop-color="#B27D1F"/>
<stop offset="0.322346" stop-color="#ECD960"/>
<stop offset="0.572626" stop-color="#B58823"/>
<stop offset="1" stop-color="#AB7C26"/>
</linearGradient>
</defs>
</svg>
