<svg width="704" height="833" viewBox="0 0 704 833" fill="none" xmlns="http://www.w3.org/2000/svg">
<path d="M368.088 0.216566C368.088 1.69788 371.791 8.73415 375.865 16.1407C382.16 26.51 383.271 32.8056 381.42 44.2858C379.938 52.8034 380.679 62.0616 383.271 66.8759C387.345 74.6528 387.715 74.6528 392.53 67.9869C395.492 64.2836 397.714 53.9144 397.714 45.3968C397.714 32.8056 395.122 27.2506 382.901 13.9188C375.124 5.03085 368.458 -1.26475 368.088 0.216566Z" fill="#FF7500"/>
<path d="M286.617 6.14535C286.617 8.36732 292.913 12.0706 300.69 14.6629C308.837 17.2552 323.28 27.9948 336.241 41.3266C356.609 62.4354 358.461 63.1761 362.905 56.8805C370.312 46.8816 369.201 40.9563 358.831 30.5871C342.907 14.6629 286.617 -4.22388 286.617 6.14535Z" fill="#FF7500"/>
<path d="M425.491 39.1021C424.38 45.0274 418.825 55.767 413.64 63.5439C407.345 72.8021 405.123 78.7274 407.715 81.3197C418.084 91.6889 434.749 68.7285 434.749 43.9164C434.749 26.8813 429.194 24.2889 425.491 39.1021Z" fill="#FF7500"/>
<path d="M221.81 37.9898C200.701 44.6558 191.443 50.2107 172.926 67.2459C146.633 91.6876 145.892 97.2426 171.074 83.9107C189.591 74.6525 198.849 72.4305 233.29 70.2085C273.285 67.6162 308.837 56.8766 308.837 47.9887C308.837 42.4338 272.915 32.8052 253.658 33.1756C244.4 33.1756 229.957 35.3975 221.81 37.9898ZM268.101 47.2481C284.025 51.692 269.212 56.5063 234.771 57.6173L203.293 58.358L223.661 51.3217C245.511 43.9151 253.288 43.1745 268.101 47.2481Z" fill="#00FF47"/>
<path d="M447.71 70.2078C435.86 88.3539 439.933 98.7231 452.895 82.4286C459.561 74.2814 464.005 55.0242 459.19 55.0242C458.45 55.0242 453.265 62.0605 447.71 70.2078Z" fill="#FF7500"/>
<path d="M314.761 92.4275C311.798 126.127 315.131 135.756 334.758 145.755C348.831 153.162 348.831 149.458 334.388 129.831C323.649 115.018 323.278 113.166 326.241 92.0572L329.204 70.2077L347.72 79.466C358.089 84.6506 371.791 94.2791 378.457 101.315C393.641 117.61 394.011 111.685 379.198 94.2791C367.718 81.3176 334.758 62.4308 323.278 62.4308C318.464 62.4308 316.612 67.9857 314.761 92.4275Z" fill="black"/>
<path d="M205.885 82.7998C171.444 90.2064 146.262 103.168 104.785 134.646C84.4167 149.829 60.7156 166.124 52.1981 170.568C41.0882 176.493 38.4959 179.086 43.3102 180.196C59.6047 183.529 95.5266 166.124 137.004 134.276C180.332 101.316 218.106 83.5405 253.287 79.8372C262.916 78.7262 261.434 78.3559 247.732 77.9855C237.733 77.9855 218.846 80.2075 205.885 82.7998Z" fill="#FF7500"/>
<path d="M494.002 90.951C485.854 99.0982 482.521 99.8389 466.227 97.9872C411.418 91.3213 406.234 91.3213 403.641 95.3949C401.79 97.9872 404.752 99.4685 412.159 99.4685C418.454 99.4685 432.157 102.802 442.896 106.875C474.745 119.096 485.484 116.504 502.89 93.9136C514.37 79.1004 508.074 76.8784 494.002 90.951Z" fill="black"/>
<path d="M331.056 91.6825C331.056 93.5342 333.648 96.1265 336.981 97.2375C340.684 98.7188 341.795 102.052 340.314 106.496C339.203 110.199 340.684 115.384 344.017 117.976C346.98 120.568 349.572 125.012 349.572 127.604C349.572 134.27 354.757 134.27 360.682 127.234C363.274 124.272 367.348 121.679 369.94 121.679C377.717 121.679 379.199 111.68 372.162 105.385C365.496 99.4594 341.425 88.3496 334.759 88.3496C332.907 88.3496 331.056 89.8309 331.056 91.6825Z" fill="black"/>
<path d="M217.735 97.2412C186.257 107.24 155.15 127.238 125.894 155.753C109.969 171.677 97.3782 185.75 98.4892 186.861C99.6002 187.972 109.229 180.195 119.598 170.196C149.595 140.94 182.184 123.535 230.327 111.314C253.287 105.388 274.025 98.7225 276.618 96.1302C282.543 90.2049 237.363 90.9456 217.735 97.2412Z" fill="#FF7500"/>
<path d="M249.585 112.8C207.367 123.91 163.669 164.646 137.375 217.603C121.821 248.711 121.821 249.081 121.821 289.817C121.821 334.997 127.006 356.106 145.152 384.992C155.521 400.916 155.521 401.657 151.448 429.802C149.226 445.726 148.855 458.688 150.337 458.688C154.41 458.688 162.928 440.912 169.964 416.84C175.149 398.324 175.519 390.917 171.445 353.884C167.372 313.889 168.853 286.114 177.371 260.561C179.593 253.525 179.593 253.525 175.149 260.191C167.001 273.152 161.076 304.63 158.484 347.218C156.262 380.548 155.151 387.584 152.188 380.548C150.337 375.734 148.485 358.328 148.485 342.034C148.485 317.962 151.077 305.001 161.817 272.412C179.593 220.195 194.406 197.235 238.845 155.017C258.843 135.76 275.508 116.873 275.508 113.17C275.508 105.763 275.878 105.763 249.585 112.8ZM228.476 151.314C176.63 200.938 155.892 237.971 139.967 310.556C137.375 323.147 137.005 323.147 134.412 314.259C132.931 309.074 131.82 293.15 131.45 278.707C131.08 255.747 132.561 249.451 145.522 223.158C166.631 179.829 203.294 139.834 235.142 125.391C259.954 114.281 257.732 123.169 228.476 151.314Z" fill="#FF7500"/>
<path d="M190.33 129.462C150.705 150.941 133.67 172.421 101.081 240.191C85.1569 273.891 67.0107 310.924 60.7151 323.145C54.4195 334.995 49.9756 345.735 51.0866 346.475C54.0492 349.438 74.047 326.107 90.3415 301.295C98.1184 289.074 109.599 265.373 115.894 248.708C122.19 232.044 130.337 212.046 134.411 204.269C146.261 180.938 172.184 150.941 195.145 133.906C220.698 115.39 218.846 113.538 190.33 129.462Z" fill="#00FF47"/>
<path d="M389.2 132.055C383.275 137.98 379.201 146.497 379.201 152.423C379.201 163.533 371.794 172.05 354.019 181.679C342.909 187.604 342.538 188.345 344.76 207.972C346.612 224.637 345.131 231.673 336.983 249.449C331.799 261.3 328.096 271.669 329.207 272.78C330.318 273.891 339.946 265.744 350.315 254.634C365.869 237.969 368.832 236.117 366.98 244.264C361.796 265.373 379.201 299.814 402.902 314.627C411.79 320.552 418.826 321.663 433.639 320.182C447.342 319.071 454.008 319.812 455.859 323.145C461.044 332.033 475.116 337.217 482.153 333.144C487.337 330.551 491.411 330.922 496.966 334.995C504.002 339.809 506.224 339.809 515.482 334.995C524.741 330.181 527.333 330.181 538.072 335.366C549.553 340.92 551.034 340.92 563.625 334.255C581.031 324.996 593.992 314.627 593.992 310.183C593.992 308.331 587.697 310.924 580.29 316.108C558.811 330.551 543.257 327.218 511.038 301.666C497.336 290.556 495.114 290.185 453.637 288.334C419.567 286.852 408.457 285.001 400.31 279.446C376.609 263.151 377.349 249.079 403.272 223.526C425.492 202.047 429.196 189.456 416.604 178.346C409.198 172.421 409.938 162.422 417.715 162.422C419.937 162.422 429.196 167.606 438.454 173.531C447.712 179.457 460.674 185.752 466.969 186.863C480.671 189.456 497.706 186.123 497.706 180.938C497.706 178.716 494.374 178.716 489.189 180.568C479.19 184.271 462.896 178.716 444.379 164.273C427.344 151.312 411.049 150.201 409.568 161.311C408.087 172.05 404.754 172.05 394.755 161.311C384.015 150.201 384.386 144.646 396.607 132.055C402.161 126.5 404.754 121.685 402.902 121.685C400.68 121.685 394.755 126.5 389.2 132.055ZM405.124 188.345C409.938 197.603 406.235 205.01 388.459 220.934C370.683 236.488 361.796 234.266 359.944 213.897C358.463 196.492 359.203 195.011 375.498 182.79C388.83 172.791 397.717 174.642 405.124 188.345ZM483.634 302.777C486.967 303.147 494.744 307.22 500.299 312.405L510.668 321.293L490.67 319.812C479.931 319.071 466.599 315.368 461.414 312.035C452.156 306.109 452.156 305.369 458.822 303.147C462.896 301.666 468.821 300.925 471.783 301.666C474.746 302.036 480.301 302.777 483.634 302.777Z" fill="black"/>
<path d="M505.111 130.945C515.11 141.684 512.888 142.425 497.334 134.648C488.816 130.204 480.299 129.463 458.449 131.315C443.266 132.796 432.156 135.389 433.637 136.87C437.341 140.573 534.367 152.054 538.811 149.091C540.663 147.98 551.773 153.165 563.623 160.201C584.362 173.162 601.397 177.606 601.397 169.829C601.397 167.607 599.545 166.126 596.953 166.126C594.731 166.126 583.991 161.682 572.881 156.127C561.771 150.943 544.366 145.758 534.367 144.647C520.665 143.536 516.221 141.314 516.221 136.87C516.221 129.093 509.185 121.687 501.778 121.687C498.075 121.687 498.815 124.279 505.111 130.945Z" fill="black"/>
<path d="M259.582 155.755C236.992 178.715 218.846 213.897 212.18 246.856C206.625 276.482 209.588 334.254 219.587 392.396C226.623 433.132 240.695 479.793 244.769 475.72C245.88 474.979 244.028 458.684 240.695 439.798C237.362 420.911 234.77 385.359 234.77 360.917C235.14 301.665 243.658 262.04 268.47 210.934C288.838 167.605 295.874 136.498 285.135 136.498C281.432 136.498 269.951 145.386 259.582 155.755ZM275.506 165.013C275.506 168.716 272.544 176.493 268.84 182.789C253.287 208.342 230.696 275.742 225.882 310.182C222.179 337.587 219.957 332.032 219.957 294.999C219.957 235.376 232.178 193.899 256.99 170.198C270.692 157.236 275.506 155.755 275.506 165.013Z" fill="#FF7500"/>
<path d="M228.475 172.418C213.662 188.713 197.737 218.339 188.109 247.595C182.924 264.26 181.443 281.666 181.443 344.622C181.073 386.839 182.184 419.428 183.665 416.836C184.776 414.244 188.109 384.617 190.331 351.288C192.553 317.588 195.886 280.184 198.108 268.334C203.292 239.818 216.995 202.785 230.326 183.528C245.14 160.938 246.621 158.716 243.658 158.716C242.547 158.716 235.511 165.012 228.475 172.418Z" fill="#FF7500"/>
<path d="M516.961 182.788C507.333 189.824 501.408 209.451 505.852 220.191C509.925 229.449 518.443 234.634 533.626 237.967C549.55 241.67 552.513 234.634 537.33 228.709L525.479 223.894L536.589 222.413C549.921 220.932 558.438 214.266 547.328 214.266C529.182 214.266 516.591 193.157 528.071 181.677C534.367 175.381 526.59 176.122 516.961 182.788Z" fill="black"/>
<path d="M605.101 182.416C605.101 189.452 598.435 189.452 581.029 182.787C575.474 180.565 576.956 183.157 585.844 192.415C592.139 199.451 597.694 208.339 597.694 212.043C597.694 222.412 604.73 215.005 609.174 199.081C612.878 187.971 612.878 183.527 609.545 180.194C606.212 176.861 605.101 177.232 605.101 182.416Z" fill="black"/>
<path d="M302.171 198.341C291.432 219.45 276.248 268.334 271.434 297.219C266.249 328.327 268.842 359.064 281.433 410.54C287.729 436.834 291.432 464.979 292.913 497.938C294.765 541.267 294.394 547.933 287.358 563.486C282.544 573.856 275.878 582.744 270.323 585.336C259.954 589.78 257.362 595.705 265.879 595.705C272.545 595.705 295.876 579.411 307.356 566.819C338.464 532.379 343.278 490.902 325.132 414.614C305.875 332.771 301.801 283.888 308.837 220.191C311.059 202.045 311.8 186.491 311.059 185.75C309.948 184.639 306.245 190.194 302.171 198.341ZM293.654 304.996C297.727 334.993 304.764 370.915 318.096 436.093C328.465 486.088 328.094 503.863 315.874 531.638C312.17 540.526 308.837 547.562 308.097 547.562C307.356 547.562 306.615 532.008 306.245 513.122C305.875 478.681 301.06 450.536 286.988 393.875C278.47 360.546 276.989 320.55 283.655 291.294C288.469 269.074 288.469 269.445 293.654 304.996Z" fill="#FF7500"/>
<path d="M268.471 237.599C264.027 246.487 256.991 267.596 252.917 285.001C245.511 312.776 245.14 320.923 248.103 362.4C249.584 387.953 251.066 428.689 251.066 453.131C251.436 494.978 250.695 499.792 237.363 537.936C229.587 560.156 224.032 579.043 224.772 579.783C228.105 582.746 252.177 551.268 261.435 532.011C281.062 492.015 282.173 465.352 267.73 388.323C255.51 322.775 258.843 268.707 277.729 232.044C280.692 226.119 281.433 221.675 279.581 221.675C277.729 221.675 272.545 228.711 268.471 237.599Z" fill="#FF7500"/>
<path d="M582.881 235.005C579.918 237.968 573.623 243.523 569.179 246.856C561.031 253.152 561.031 253.522 567.697 265.743L574.363 278.334L586.954 266.854C596.953 257.596 598.064 255.374 592.509 255.003C586.954 255.003 586.214 253.152 588.065 242.042C591.028 227.599 590.658 227.599 582.881 235.005Z" fill="black"/>
<path d="M423.641 243.889C412.901 247.222 411.42 246.482 464.007 262.035C485.115 268.331 507.706 273.516 513.631 273.516C526.592 273.516 556.959 259.813 556.959 254.258C556.959 252.037 554.737 252.407 551.034 254.999C542.887 262.035 518.075 260.924 488.448 252.037C456.6 242.778 435.862 240.186 423.641 243.889Z" fill="black"/>
<path d="M343.278 301.666C335.871 319.442 341.056 367.585 355.128 412.394C366.238 447.946 369.201 464.611 370.682 496.089C372.534 532.752 372.163 537.195 363.275 556.082C353.647 577.561 339.574 589.412 311.8 601.262C294.024 608.299 293.653 603.484 311.059 593.856C327.724 584.968 344.759 563.489 353.647 540.158C367.349 503.866 359.572 430.541 334.76 367.955C325.502 344.254 325.502 353.142 334.76 387.212C345.129 426.837 350.684 471.647 348.462 495.348C344.389 533.492 335.871 550.898 308.837 577.191C295.505 590.523 278.1 604.595 270.693 608.669C254.769 617.187 252.177 623.112 267.36 617.557C272.915 615.335 291.061 613.483 307.726 613.113C334.76 612.372 339.574 611.261 353.647 601.262C390.68 574.969 407.345 537.566 404.012 486.831C402.53 462.759 396.975 440.91 375.867 377.213C361.053 333.514 348.462 297.222 347.722 296.481C346.611 295.37 344.759 297.963 343.278 301.666ZM369.571 395.73C389.199 452.39 395.494 482.016 392.902 509.421C389.199 548.676 383.273 550.527 383.273 512.383C383.273 489.793 380.681 470.166 375.126 451.279C371.052 436.096 364.386 412.765 360.683 399.433C354.388 377.954 351.055 351.29 354.758 355.364C355.499 356.104 362.164 374.25 369.571 395.73Z" fill="#FF7500"/>
<path d="M199.22 357.955C198.85 395.358 193.295 439.798 184.407 476.09C179.222 496.458 192.925 478.312 202.923 450.907C213.663 421.651 215.144 398.321 208.478 352.4C202.183 308.701 199.59 310.182 199.22 357.955Z" fill="#00FF47"/>
<path d="M435.119 346.845C434.749 352.4 444.378 365.361 462.894 385.359C548.44 476.83 548.811 533.491 464.005 617.926C443.637 638.294 428.824 654.959 431.046 654.959C439.193 654.959 486.966 620.518 500.297 605.335C518.073 584.596 537.33 543.49 540.663 519.418C545.848 477.201 522.888 432.021 469.93 381.656C454.747 366.843 440.304 351.289 438.452 346.474L435.119 338.327V346.845Z" fill="#00FF47"/>
<path d="M406.602 372.396C408.083 386.468 412.527 411.651 416.601 429.056C420.674 446.462 425.118 471.274 426.229 484.606C429.562 526.453 410.675 581.632 382.53 610.518C366.977 626.812 335.128 643.847 321.056 643.847C316.241 643.847 312.538 645.699 312.538 647.921C312.538 655.698 355.867 648.291 381.049 636.441C430.673 612.74 465.484 550.524 458.818 496.086C455.485 467.571 453.263 458.683 448.819 458.683C446.597 458.683 445.857 469.422 446.597 485.346C449.19 530.897 440.672 564.597 420.304 587.928C411.416 598.297 410.305 595.705 417.712 579.78C428.451 555.709 435.117 530.156 437.339 506.826C439.191 483.865 437.709 471.644 425.859 417.946C422.896 404.615 421.045 393.134 422.156 392.394C425.118 389.431 461.04 408.318 470.298 417.576C496.962 443.87 508.813 502.382 495.481 541.266C485.482 570.152 481.038 569.041 482.149 538.304C484.001 502.752 477.335 472.385 465.855 459.423C460.67 453.868 457.337 452.017 458.448 454.979C470.298 490.531 472.52 502.382 471.039 530.156C469.188 571.633 452.893 607.185 424.007 633.108C400.677 653.846 402.158 656.439 427.711 639.774C452.152 624.22 482.149 590.89 497.333 562.375C529.181 502.382 506.22 421.279 448.819 390.542C432.895 382.024 425.489 374.988 419.193 363.138C414.379 354.62 409.194 347.584 407.342 347.584C405.861 347.584 405.491 358.694 406.602 372.396Z" fill="#FF7500"/>
<path d="M115.594 681.226V689.734H98.1621V740.908H86.5825V689.734H68.9849V681.226H115.594ZM162.078 738.958C160.944 739.428 159.699 739.843 158.343 740.203C157.015 740.562 155.617 740.867 154.151 741.116C152.684 741.365 151.19 741.558 149.668 741.697C148.174 741.835 146.708 741.904 145.269 741.904C137.992 741.904 132.486 740.161 128.75 736.675C125.043 733.161 123.189 727.793 123.189 720.571C123.189 717.362 123.562 714.318 124.31 711.44C125.057 708.563 126.26 706.045 127.92 703.887C129.608 701.701 131.808 699.972 134.52 698.699C137.259 697.426 140.607 696.79 144.563 696.79C151.481 696.79 156.641 698.63 160.044 702.31C163.448 705.962 165.149 711.551 165.149 719.077V722.356H134.478C134.533 724.237 134.755 725.898 135.142 727.336C135.529 728.775 136.166 729.993 137.051 730.989C137.964 731.957 139.154 732.704 140.621 733.23C142.087 733.728 143.927 733.977 146.141 733.977C148.077 733.977 150.167 733.742 152.408 733.271C154.649 732.773 156.987 732.068 159.422 731.155L162.078 738.958ZM153.777 714.968C153.584 708.134 150.512 704.717 144.563 704.717C141.492 704.717 139.154 705.602 137.549 707.373C135.972 709.144 135.004 711.676 134.644 714.968H153.777ZM191.504 696.831C194.161 696.831 196.762 697.066 199.307 697.537C201.853 698.007 204.08 698.63 205.989 699.404C205.602 700.511 205.145 701.632 204.62 702.766C204.122 703.901 203.61 704.98 203.084 706.003C201.673 705.533 200.027 705.132 198.145 704.8C196.291 704.468 194.451 704.302 192.625 704.302C191.574 704.302 190.564 704.385 189.595 704.551C188.654 704.689 187.824 704.924 187.105 705.256C186.413 705.588 185.86 706.031 185.445 706.584C185.03 707.11 184.822 707.76 184.822 708.535C184.822 709.614 185.085 710.472 185.611 711.108C186.164 711.717 186.884 712.215 187.769 712.603C188.682 712.99 189.734 713.308 190.923 713.557C192.113 713.806 193.358 714.083 194.659 714.387C196.679 714.858 198.56 715.452 200.303 716.172C202.074 716.891 203.596 717.818 204.869 718.953C206.169 720.059 207.165 721.429 207.857 723.062C208.576 724.666 208.922 726.603 208.895 728.872C208.839 731.307 208.258 733.354 207.151 735.015C206.072 736.675 204.633 738.017 202.835 739.041C201.064 740.064 199.03 740.798 196.734 741.24C194.465 741.683 192.141 741.904 189.761 741.904C188.184 741.904 186.607 741.821 185.03 741.655C183.453 741.489 181.945 741.24 180.506 740.908C179.067 740.604 177.725 740.244 176.48 739.829C175.235 739.386 174.142 738.902 173.201 738.376C173.672 737.297 174.197 736.177 174.778 735.015C175.359 733.853 175.927 732.773 176.48 731.777C177.255 732.109 178.14 732.441 179.136 732.773C180.16 733.078 181.225 733.354 182.332 733.604C183.466 733.825 184.615 734.019 185.777 734.185C186.967 734.323 188.129 734.392 189.263 734.392C190.425 734.392 191.532 734.295 192.583 734.102C193.635 733.908 194.548 733.604 195.323 733.188C196.125 732.746 196.748 732.179 197.19 731.487C197.661 730.767 197.896 729.896 197.896 728.872C197.896 727.71 197.619 726.783 197.066 726.091C196.54 725.4 195.821 724.846 194.908 724.431C193.995 724.016 192.943 723.684 191.753 723.435C190.564 723.186 189.332 722.937 188.06 722.688C186.123 722.301 184.283 721.747 182.54 721.028C180.796 720.308 179.275 719.382 177.974 718.247C176.674 717.113 175.636 715.743 174.861 714.138C174.114 712.506 173.768 710.597 173.824 708.411C173.851 706.252 174.377 704.44 175.401 702.974C176.425 701.479 177.753 700.29 179.385 699.404C181.018 698.491 182.885 697.841 184.988 697.454C187.091 697.039 189.263 696.831 191.504 696.831ZM235.125 687.866V697.744H249.651V706.045H235.125V726.755C235.125 728.111 235.18 729.232 235.291 730.117C235.429 731.003 235.665 731.708 235.997 732.234C236.329 732.732 236.785 733.092 237.366 733.313C237.947 733.507 238.694 733.604 239.607 733.604C240.493 733.604 241.517 733.507 242.679 733.313C243.868 733.119 245.266 732.843 246.871 732.483C247.037 732.981 247.216 733.562 247.41 734.226C247.632 734.89 247.839 735.582 248.033 736.301C248.254 736.993 248.462 737.671 248.655 738.335C248.849 738.971 249.029 739.539 249.195 740.037C248.42 740.313 247.507 740.576 246.456 740.825C245.432 741.047 244.353 741.24 243.218 741.406C242.084 741.572 240.936 741.697 239.773 741.78C238.611 741.863 237.518 741.904 236.495 741.904C235.526 741.904 234.572 741.863 233.631 741.78C232.69 741.697 231.791 741.545 230.933 741.323C230.103 741.13 229.328 740.867 228.609 740.535C227.889 740.203 227.267 739.774 226.741 739.248C225.524 738.058 224.721 736.426 224.334 734.351C223.947 732.248 223.753 729.578 223.753 726.34V706.045H217.527V697.744H223.753V687.866H235.125ZM271.607 705.132C272.52 703.748 273.461 702.545 274.429 701.521C275.425 700.47 276.477 699.598 277.583 698.906C278.718 698.187 279.949 697.661 281.277 697.329C282.633 696.969 284.127 696.79 285.76 696.79C287.586 696.79 289.205 696.997 290.616 697.412C292.027 697.799 293.244 698.381 294.268 699.155C295.292 699.902 296.15 700.843 296.841 701.978C297.561 703.084 298.128 704.343 298.543 705.754C298.93 707.166 299.207 708.701 299.373 710.361C299.567 711.994 299.664 713.765 299.664 715.674V740.908H288.292V712.395C288.292 710.015 287.738 708.203 286.631 706.958C285.552 705.713 284.072 705.09 282.19 705.09C281.139 705.09 280.101 705.339 279.078 705.837C278.082 706.335 277.113 707 276.172 707.83C275.232 708.632 274.36 709.545 273.558 710.569C272.755 711.593 272.036 712.63 271.399 713.682V740.908H260.027V714.304C260.027 712.063 260 710.195 259.944 708.701C259.917 707.179 259.847 705.837 259.737 704.675C259.681 704.094 259.626 703.582 259.571 703.14C259.515 702.697 259.446 702.268 259.363 701.853C259.308 701.438 259.225 701.023 259.114 700.608C259.031 700.165 258.921 699.667 258.782 699.114C260.581 698.643 262.365 698.228 264.136 697.869C265.935 697.481 267.747 697.122 269.573 696.79C269.767 697.371 269.947 697.952 270.113 698.533C270.279 699.086 270.417 699.695 270.528 700.359C270.639 700.995 270.735 701.701 270.818 702.476C270.901 703.25 270.984 704.136 271.067 705.132H271.607ZM347.518 738.958C346.383 739.428 345.138 739.843 343.782 740.203C342.454 740.562 341.057 740.867 339.59 741.116C338.124 741.365 336.63 741.558 335.108 741.697C333.614 741.835 332.147 741.904 330.708 741.904C323.431 741.904 317.925 740.161 314.19 736.675C310.482 733.161 308.628 727.793 308.628 720.571C308.628 717.362 309.002 714.318 309.749 711.44C310.496 708.563 311.7 706.045 313.36 703.887C315.048 701.701 317.247 699.972 319.959 698.699C322.698 697.426 326.046 696.79 330.003 696.79C336.92 696.79 342.081 698.63 345.484 702.31C348.887 705.962 350.589 711.551 350.589 719.077V722.356H319.917C319.973 724.237 320.194 725.898 320.582 727.336C320.969 728.775 321.605 729.993 322.491 730.989C323.404 731.957 324.594 732.704 326.06 733.23C327.527 733.728 329.367 733.977 331.58 733.977C333.517 733.977 335.606 733.742 337.847 733.271C340.088 732.773 342.426 732.068 344.861 731.155L347.518 738.958ZM339.217 714.968C339.023 708.134 335.952 704.717 330.003 704.717C326.932 704.717 324.594 705.602 322.989 707.373C321.412 709.144 320.443 711.676 320.083 714.968H339.217ZM376.736 687.866V697.744H391.263V706.045H376.736V726.755C376.736 728.111 376.792 729.232 376.902 730.117C377.041 731.003 377.276 731.708 377.608 732.234C377.94 732.732 378.396 733.092 378.978 733.313C379.559 733.507 380.306 733.604 381.219 733.604C382.104 733.604 383.128 733.507 384.29 733.313C385.48 733.119 386.877 732.843 388.482 732.483C388.648 732.981 388.828 733.562 389.021 734.226C389.243 734.89 389.45 735.582 389.644 736.301C389.865 736.993 390.073 737.671 390.267 738.335C390.46 738.971 390.64 739.539 390.806 740.037C390.031 740.313 389.118 740.576 388.067 740.825C387.043 741.047 385.964 741.24 384.83 741.406C383.695 741.572 382.547 741.697 381.385 741.78C380.223 741.863 379.13 741.904 378.106 741.904C377.138 741.904 376.183 741.863 375.242 741.78C374.301 741.697 373.402 741.545 372.544 741.323C371.714 741.13 370.94 740.867 370.22 740.535C369.501 740.203 368.878 739.774 368.353 739.248C367.135 738.058 366.333 736.426 365.945 734.351C365.558 732.248 365.364 729.578 365.364 726.34V706.045H359.139V697.744H365.364V687.866H376.736ZM448.912 681.226C451.817 681.226 454.404 681.627 456.673 682.429C458.969 683.204 460.906 684.352 462.483 685.874C464.061 687.396 465.264 689.277 466.094 691.519C466.924 693.76 467.339 696.333 467.339 699.238C467.339 702.393 466.827 705.16 465.804 707.539C464.78 709.891 463.313 711.855 461.404 713.433C459.495 715.01 457.185 716.2 454.473 717.002C451.762 717.804 448.732 718.206 445.384 718.206C443.834 718.206 442.368 718.164 440.984 718.081C439.629 717.97 438.425 717.86 437.374 717.749V740.908H425.794V681.226H448.912ZM437.374 709.822C438.259 709.96 439.131 710.071 439.988 710.154C440.874 710.209 441.731 710.237 442.562 710.237C444.692 710.237 446.56 710.057 448.165 709.697C449.797 709.338 451.153 708.743 452.232 707.913C453.339 707.083 454.169 706.003 454.722 704.675C455.276 703.347 455.552 701.701 455.552 699.736C455.552 697.799 455.345 696.167 454.93 694.839C454.515 693.483 453.851 692.39 452.938 691.56C452.024 690.73 450.848 690.135 449.41 689.775C447.971 689.388 446.228 689.194 444.18 689.194H437.374V709.822ZM490.955 705.132C491.951 703.665 492.878 702.462 493.736 701.521C494.566 700.608 495.438 699.861 496.351 699.28C497.264 698.671 498.177 698.187 499.09 697.827C500.031 697.44 500.971 697.177 501.912 697.039C502.853 696.873 503.78 696.79 504.693 696.79C505.468 696.79 506.215 696.845 506.934 696.956C507.681 697.039 508.373 697.149 509.009 697.288C508.926 698.062 508.816 698.892 508.677 699.778C508.539 700.636 508.387 701.507 508.221 702.393C508.055 703.278 507.861 704.15 507.64 705.007C507.446 705.865 507.238 706.667 507.017 707.415C505.44 707.11 504.07 706.861 502.908 706.667C501.746 706.446 500.708 706.335 499.795 706.335C498.938 706.335 498.149 706.46 497.43 706.709C496.738 706.93 496.046 707.332 495.354 707.913C494.663 708.494 493.943 709.268 493.196 710.237C492.477 711.178 491.661 712.367 490.748 713.806V740.908H479.375V714.304C479.375 712.699 479.362 711.205 479.334 709.822C479.306 708.411 479.251 707.096 479.168 705.879C479.085 704.634 478.96 703.458 478.794 702.351C478.628 701.244 478.407 700.165 478.13 699.114C479.929 698.643 481.714 698.215 483.484 697.827C485.283 697.44 487.095 697.094 488.921 696.79C489.115 697.371 489.295 697.952 489.461 698.533C489.627 699.086 489.765 699.695 489.876 700.359C489.987 700.995 490.083 701.701 490.167 702.476C490.25 703.25 490.333 704.136 490.416 705.132H490.955ZM524.739 676.702C525.68 676.702 526.565 676.882 527.396 677.241C528.253 677.601 528.986 678.099 529.595 678.735C530.232 679.344 530.73 680.077 531.089 680.935C531.449 681.765 531.629 682.651 531.629 683.591C531.629 684.56 531.449 685.459 531.089 686.289C530.73 687.119 530.232 687.852 529.595 688.489C528.986 689.125 528.253 689.623 527.396 689.983C526.565 690.343 525.68 690.522 524.739 690.522C523.771 690.522 522.872 690.343 522.042 689.983C521.211 689.623 520.478 689.125 519.842 688.489C519.205 687.852 518.707 687.119 518.348 686.289C517.988 685.459 517.808 684.56 517.808 683.591C517.808 682.651 517.988 681.765 518.348 680.935C518.707 680.077 519.205 679.344 519.842 678.735C520.478 678.099 521.211 677.601 522.042 677.241C522.872 676.882 523.771 676.702 524.739 676.702ZM530.384 697.744V740.908H519.012V697.744H530.384ZM581.89 681.143V726.838V728.623C581.89 730.781 581.959 732.732 582.098 734.475C582.236 736.191 582.54 737.934 583.011 739.705C582.125 739.954 581.268 740.189 580.438 740.41C579.607 740.604 578.777 740.784 577.947 740.95C577.145 741.143 576.329 741.309 575.499 741.448C574.668 741.614 573.797 741.766 572.884 741.904C572.662 741.323 572.469 740.77 572.303 740.244C572.164 739.718 572.026 739.151 571.888 738.542C571.777 737.934 571.68 737.27 571.597 736.55C571.514 735.831 571.445 734.987 571.39 734.019H570.933C567.723 739.276 563.186 741.904 557.32 741.904C554.415 741.904 551.966 741.337 549.974 740.203C547.981 739.068 546.363 737.546 545.118 735.637C543.9 733.7 543.015 731.473 542.461 728.955C541.936 726.41 541.673 723.726 541.673 720.903C541.673 716.919 542.199 713.433 543.25 710.444C544.329 707.428 545.837 704.91 547.774 702.891C549.711 700.871 552.021 699.349 554.705 698.325C557.417 697.301 560.405 696.79 563.67 696.79C564.86 696.79 566.008 696.845 567.115 696.956C568.249 697.066 569.384 697.205 570.518 697.371V681.143H581.89ZM570.643 705.92C568.429 705.367 566.368 705.09 564.458 705.09C562.826 705.09 561.304 705.312 559.893 705.754C558.51 706.197 557.306 706.917 556.282 707.913C555.258 708.909 554.456 710.195 553.875 711.772C553.322 713.35 553.045 715.273 553.045 717.542C553.045 719.893 553.128 722.052 553.294 724.016C553.488 725.981 553.875 727.682 554.456 729.121C555.037 730.532 555.867 731.639 556.946 732.441C558.025 733.216 559.464 733.604 561.263 733.604C562.563 733.604 563.698 733.341 564.666 732.815C565.662 732.289 566.561 731.556 567.364 730.615C567.972 729.951 568.54 729.204 569.065 728.374C569.591 727.516 570.117 726.603 570.643 725.635V705.92ZM631.57 738.958C630.436 739.428 629.191 739.843 627.835 740.203C626.507 740.562 625.11 740.867 623.643 741.116C622.177 741.365 620.682 741.558 619.161 741.697C617.667 741.835 616.2 741.904 614.761 741.904C607.484 741.904 601.978 740.161 598.243 736.675C594.535 733.161 592.681 727.793 592.681 720.571C592.681 717.362 593.055 714.318 593.802 711.44C594.549 708.563 595.752 706.045 597.413 703.887C599.1 701.701 601.3 699.972 604.012 698.699C606.751 697.426 610.099 696.79 614.056 696.79C620.973 696.79 626.133 698.63 629.537 702.31C632.94 705.962 634.642 711.551 634.642 719.077V722.356H603.97C604.026 724.237 604.247 725.898 604.634 727.336C605.022 728.775 605.658 729.993 606.543 730.989C607.457 731.957 608.646 732.704 610.113 733.23C611.579 733.728 613.419 733.977 615.633 733.977C617.57 733.977 619.659 733.742 621.9 733.271C624.141 732.773 626.479 732.068 628.914 731.155L631.57 738.958ZM623.27 714.968C623.076 708.134 620.005 704.717 614.056 704.717C610.984 704.717 608.646 705.602 607.042 707.373C605.464 709.144 604.496 711.676 604.136 714.968H623.27Z" fill="black"/>
<path d="M206.784 763.172V773.862H206.884C207.271 773.368 207.685 772.928 208.125 772.541C208.566 772.141 209.04 771.8 209.547 771.52C210.067 771.24 210.628 771.026 211.229 770.879C211.829 770.733 212.49 770.659 213.21 770.659C214.612 770.659 215.793 770.933 216.754 771.48C217.715 772.027 218.489 772.761 219.076 773.682C219.677 774.603 220.104 775.677 220.357 776.905C220.624 778.12 220.758 779.394 220.758 780.729C220.758 782.544 220.551 784.172 220.137 785.614C219.723 787.055 219.049 788.283 218.115 789.297C217.181 790.298 215.953 791.072 214.432 791.62C212.924 792.153 211.062 792.42 208.846 792.42C207.485 792.42 206.197 792.354 204.982 792.22C203.781 792.1 202.573 791.953 201.359 791.78V763.172H206.784ZM206.784 788.036C207.331 788.156 207.865 788.25 208.386 788.316C208.906 788.383 209.407 788.417 209.887 788.417C210.661 788.417 211.375 788.316 212.029 788.116C212.697 787.916 213.271 787.582 213.751 787.115C214.231 786.648 214.605 786.028 214.872 785.253C215.139 784.479 215.272 783.512 215.272 782.351C215.272 781.229 215.226 780.202 215.132 779.268C215.039 778.32 214.852 777.506 214.572 776.825C214.292 776.145 213.891 775.617 213.371 775.244C212.85 774.857 212.163 774.663 211.309 774.663C210.775 774.663 210.294 774.763 209.867 774.963C209.453 775.15 209.066 775.417 208.706 775.764C208.346 776.098 208.005 776.498 207.685 776.965C207.378 777.432 207.078 777.946 206.784 778.507V788.036ZM244.841 771.18V791.84C244.841 793.401 244.588 794.723 244.081 795.804C243.587 796.898 242.879 797.786 241.958 798.466C241.051 799.147 239.957 799.641 238.675 799.948C237.407 800.255 236.006 800.408 234.471 800.408C233.283 800.408 232.076 800.301 230.848 800.088C229.633 799.888 228.505 799.581 227.464 799.167C227.745 798.5 228.032 797.846 228.325 797.205C228.619 796.564 228.919 795.924 229.226 795.283C230.187 795.59 231.161 795.85 232.149 796.064C233.137 796.291 234.091 796.404 235.012 796.404C235.279 796.404 235.566 796.391 235.873 796.364C236.193 796.351 236.513 796.304 236.833 796.224C237.154 796.144 237.467 796.017 237.774 795.844C238.081 795.684 238.348 795.457 238.575 795.163C238.815 794.883 239.009 794.522 239.156 794.082C239.303 793.655 239.383 793.134 239.396 792.521V788.457H239.216C238.775 789.124 238.315 789.711 237.834 790.218C237.367 790.712 236.86 791.132 236.313 791.479C235.766 791.813 235.165 792.06 234.511 792.22C233.857 792.394 233.13 792.48 232.329 792.48C231.021 792.48 229.94 792.274 229.086 791.86C228.232 791.446 227.544 790.852 227.024 790.078C226.517 789.277 226.156 788.316 225.943 787.195C225.729 786.074 225.623 784.8 225.623 783.372V771.18H231.108V784.953C231.108 786.101 231.375 786.975 231.909 787.576C232.443 788.176 233.177 788.477 234.111 788.477C234.618 788.477 235.112 788.356 235.592 788.116C236.086 787.876 236.56 787.562 237.014 787.175C237.467 786.788 237.888 786.348 238.275 785.854C238.662 785.347 239.009 784.84 239.316 784.333V771.18H244.841ZM271.147 763.212C272.722 763.212 274.177 763.299 275.511 763.472C276.846 763.632 278.074 763.919 279.195 764.333C280.516 764.827 281.624 765.487 282.518 766.315C283.412 767.129 284.126 768.097 284.66 769.218C285.194 770.339 285.574 771.6 285.801 773.001C286.028 774.389 286.142 775.898 286.142 777.526C286.142 779.154 286.021 780.669 285.781 782.07C285.554 783.472 285.167 784.74 284.62 785.874C284.073 786.995 283.352 787.976 282.458 788.817C281.577 789.644 280.489 790.312 279.195 790.819C278.074 791.246 276.846 791.553 275.511 791.74C274.177 791.913 272.722 792 271.147 792H263.339V763.212H271.147ZM269.746 787.936C271.948 787.936 273.743 787.776 275.131 787.456C276.519 787.135 277.607 786.581 278.394 785.794C279.181 785.007 279.722 783.959 280.016 782.651C280.309 781.33 280.456 779.668 280.456 777.666C280.456 775.664 280.309 773.996 280.016 772.661C279.735 771.326 279.228 770.265 278.494 769.478C277.76 768.677 276.766 768.11 275.511 767.776C274.257 767.443 272.668 767.276 270.747 767.276H268.945V787.936H269.746ZM291.967 772.201C292.461 772 293.022 771.814 293.649 771.64C294.29 771.467 294.964 771.313 295.671 771.18C296.392 771.033 297.132 770.919 297.893 770.839C298.667 770.759 299.448 770.719 300.235 770.719C301.343 770.719 302.377 770.806 303.338 770.979C304.313 771.153 305.12 771.44 305.761 771.84C306.401 772.241 306.902 772.788 307.262 773.482C307.623 774.163 307.803 775.023 307.803 776.064V784.192C307.803 785.127 307.809 785.961 307.823 786.695C307.836 787.416 307.863 788.123 307.903 788.817C307.93 789.07 307.956 789.304 307.983 789.518C308.01 789.718 308.036 789.918 308.063 790.118C308.103 790.305 308.143 790.505 308.183 790.719C308.236 790.932 308.297 791.166 308.363 791.419C307.536 791.606 306.708 791.786 305.881 791.96C305.067 792.133 304.239 792.3 303.398 792.46C303.252 792.087 303.132 791.706 303.038 791.319C302.958 790.919 302.885 790.465 302.818 789.958H302.518C302.05 790.438 301.583 790.839 301.116 791.159C300.649 791.479 300.162 791.74 299.655 791.94C299.148 792.14 298.62 792.28 298.073 792.36C297.526 792.44 296.952 792.48 296.352 792.48C295.431 792.48 294.576 792.367 293.789 792.14C293.002 791.927 292.314 791.593 291.727 791.139C291.153 790.685 290.699 790.111 290.366 789.417C290.045 788.71 289.885 787.883 289.885 786.935C289.885 786.134 289.965 785.42 290.125 784.793C290.299 784.166 290.539 783.605 290.846 783.111C291.153 782.618 291.52 782.184 291.947 781.81C292.374 781.436 292.848 781.109 293.369 780.829C294.41 780.269 295.571 779.888 296.852 779.688C298.133 779.474 299.441 779.368 300.776 779.368H302.498V776.765C302.498 776.271 302.417 775.884 302.257 775.604C302.111 775.31 301.904 775.09 301.637 774.943C301.383 774.797 301.083 774.703 300.736 774.663C300.389 774.61 300.015 774.583 299.615 774.583C298.534 774.583 297.439 774.723 296.332 775.003C295.237 775.27 294.189 775.604 293.188 776.004L291.967 772.201ZM302.498 782.311H302.097C301.15 782.324 300.242 782.397 299.375 782.531C298.52 782.651 297.766 782.864 297.112 783.171C296.458 783.478 295.931 783.885 295.531 784.393C295.144 784.886 294.95 785.514 294.95 786.274C294.95 787.115 295.19 787.763 295.671 788.216C296.165 788.67 296.852 788.897 297.733 788.897C298.147 788.897 298.574 788.844 299.014 788.737C299.455 788.617 299.888 788.457 300.315 788.256C300.743 788.043 301.143 787.783 301.517 787.476C301.89 787.169 302.217 786.815 302.498 786.415V782.311ZM320.055 774.743C320.495 774.076 320.949 773.495 321.416 773.001C321.896 772.494 322.404 772.074 322.938 771.74C323.485 771.393 324.079 771.14 324.719 770.979C325.373 770.806 326.094 770.719 326.881 770.719C327.762 770.719 328.543 770.819 329.224 771.02C329.904 771.206 330.492 771.487 330.985 771.86C331.479 772.221 331.893 772.674 332.227 773.222C332.574 773.756 332.847 774.363 333.047 775.043C333.234 775.724 333.368 776.465 333.448 777.266C333.541 778.053 333.588 778.907 333.588 779.828V792H328.103V778.247C328.103 777.099 327.836 776.225 327.302 775.624C326.781 775.023 326.067 774.723 325.16 774.723C324.653 774.723 324.152 774.843 323.658 775.083C323.178 775.324 322.711 775.644 322.257 776.044C321.803 776.431 321.383 776.872 320.996 777.366C320.609 777.86 320.262 778.36 319.955 778.867V792H314.469V779.167C314.469 778.086 314.456 777.186 314.429 776.465C314.416 775.731 314.382 775.083 314.329 774.523C314.302 774.243 314.276 773.996 314.249 773.782C314.222 773.569 314.189 773.362 314.149 773.162C314.122 772.961 314.082 772.761 314.029 772.561C313.989 772.347 313.935 772.107 313.869 771.84C314.736 771.613 315.597 771.413 316.451 771.24C317.319 771.053 318.193 770.879 319.074 770.719C319.167 771 319.254 771.28 319.334 771.56C319.414 771.827 319.481 772.121 319.534 772.441C319.588 772.748 319.634 773.088 319.674 773.462C319.714 773.836 319.754 774.263 319.794 774.743H320.055ZM342.457 761.03C342.91 761.03 343.337 761.117 343.738 761.29C344.152 761.464 344.505 761.704 344.799 762.011C345.106 762.304 345.346 762.658 345.52 763.072C345.693 763.472 345.78 763.899 345.78 764.353C345.78 764.82 345.693 765.254 345.52 765.654C345.346 766.055 345.106 766.408 344.799 766.715C344.505 767.022 344.152 767.263 343.738 767.436C343.337 767.61 342.91 767.696 342.457 767.696C341.989 767.696 341.556 767.61 341.155 767.436C340.755 767.263 340.401 767.022 340.094 766.715C339.787 766.408 339.547 766.055 339.374 765.654C339.2 765.254 339.113 764.82 339.113 764.353C339.113 763.899 339.2 763.472 339.374 763.072C339.547 762.658 339.787 762.304 340.094 762.011C340.401 761.704 340.755 761.464 341.155 761.29C341.556 761.117 341.989 761.03 342.457 761.03ZM345.179 771.18V792H339.694V771.18H345.179ZM369.443 791.059C368.896 791.286 368.295 791.486 367.641 791.66C367 791.833 366.326 791.98 365.619 792.1C364.912 792.22 364.191 792.314 363.457 792.38C362.736 792.447 362.029 792.48 361.335 792.48C357.825 792.48 355.169 791.64 353.367 789.958C351.579 788.263 350.685 785.674 350.685 782.19C350.685 780.642 350.865 779.174 351.225 777.786C351.585 776.398 352.166 775.184 352.967 774.143C353.781 773.088 354.842 772.254 356.15 771.64C357.471 771.026 359.086 770.719 360.995 770.719C364.331 770.719 366.82 771.607 368.462 773.382C370.104 775.144 370.924 777.84 370.924 781.47V783.051H356.13C356.157 783.959 356.263 784.76 356.45 785.454C356.637 786.148 356.944 786.735 357.371 787.215C357.812 787.682 358.385 788.043 359.093 788.296C359.8 788.537 360.688 788.657 361.755 788.657C362.69 788.657 363.697 788.543 364.778 788.316C365.859 788.076 366.987 787.736 368.162 787.295L369.443 791.059ZM365.439 779.488C365.346 776.191 363.864 774.543 360.995 774.543C359.513 774.543 358.385 774.97 357.611 775.824C356.851 776.678 356.383 777.9 356.21 779.488H365.439ZM380.594 783.832C380.594 784.94 380.6 785.867 380.614 786.615C380.64 787.362 380.681 788.016 380.734 788.577C380.761 788.87 380.787 789.131 380.814 789.357C380.841 789.571 380.867 789.785 380.894 789.998C380.921 790.198 380.954 790.405 380.994 790.619C381.048 790.819 381.108 791.046 381.174 791.299C380.293 791.566 379.413 791.8 378.532 792C377.651 792.187 376.75 792.347 375.829 792.48C375.629 791.88 375.455 791.246 375.309 790.579C375.175 789.898 375.108 789.157 375.108 788.356V763.172H380.594V783.832ZM415.848 763.212L419.131 792H413.646L411.284 770.579H411.164L404.978 792.1H398.812L392.625 770.579H392.505L390.143 792H384.658L387.941 763.212H395.268L401.895 786.294L408.521 763.212H415.848ZM432.785 770.719C434.533 770.719 436.048 770.993 437.329 771.54C438.61 772.087 439.665 772.848 440.492 773.822C441.333 774.783 441.954 775.931 442.354 777.266C442.768 778.587 442.975 780.028 442.975 781.59C442.975 783.151 442.768 784.599 442.354 785.934C441.954 787.269 441.333 788.423 440.492 789.397C439.665 790.358 438.61 791.112 437.329 791.66C436.048 792.207 434.533 792.48 432.785 792.48C431.036 792.48 429.521 792.207 428.24 791.66C426.959 791.112 425.898 790.358 425.057 789.397C424.23 788.423 423.609 787.269 423.195 785.934C422.795 784.599 422.595 783.151 422.595 781.59C422.595 780.028 422.795 778.587 423.195 777.266C423.609 775.931 424.23 774.783 425.057 773.822C425.898 772.848 426.959 772.087 428.24 771.54C429.521 770.993 431.036 770.719 432.785 770.719ZM432.785 774.643C431.824 774.643 431.036 774.823 430.422 775.184C429.808 775.544 429.328 776.038 428.981 776.665C428.634 777.292 428.394 778.033 428.26 778.887C428.14 779.728 428.08 780.629 428.08 781.59C428.08 782.564 428.14 783.478 428.26 784.333C428.394 785.173 428.634 785.907 428.981 786.535C429.328 787.162 429.808 787.656 430.422 788.016C431.036 788.376 431.824 788.557 432.785 788.557C433.746 788.557 434.533 788.376 435.147 788.016C435.761 787.656 436.241 787.162 436.588 786.535C436.935 785.907 437.169 785.173 437.289 784.333C437.423 783.478 437.489 782.564 437.489 781.59C437.489 780.629 437.423 779.728 437.289 778.887C437.169 778.033 436.935 777.292 436.588 776.665C436.241 776.038 435.761 775.544 435.147 775.184C434.533 774.823 433.746 774.643 432.785 774.643ZM457.088 770.719C458.837 770.719 460.352 770.993 461.633 771.54C462.914 772.087 463.968 772.848 464.796 773.822C465.637 774.783 466.257 775.931 466.658 777.266C467.071 778.587 467.278 780.028 467.278 781.59C467.278 783.151 467.071 784.599 466.658 785.934C466.257 787.269 465.637 788.423 464.796 789.397C463.968 790.358 462.914 791.112 461.633 791.66C460.352 792.207 458.837 792.48 457.088 792.48C455.34 792.48 453.825 792.207 452.544 791.66C451.263 791.112 450.202 790.358 449.361 789.397C448.533 788.423 447.913 787.269 447.499 785.934C447.099 784.599 446.898 783.151 446.898 781.59C446.898 780.028 447.099 778.587 447.499 777.266C447.913 775.931 448.533 774.783 449.361 773.822C450.202 772.848 451.263 772.087 452.544 771.54C453.825 770.993 455.34 770.719 457.088 770.719ZM457.088 774.643C456.127 774.643 455.34 774.823 454.726 775.184C454.112 775.544 453.632 776.038 453.285 776.665C452.938 777.292 452.697 778.033 452.564 778.887C452.444 779.728 452.384 780.629 452.384 781.59C452.384 782.564 452.444 783.478 452.564 784.333C452.697 785.173 452.938 785.907 453.285 786.535C453.632 787.162 454.112 787.656 454.726 788.016C455.34 788.376 456.127 788.557 457.088 788.557C458.049 788.557 458.837 788.376 459.451 788.016C460.065 787.656 460.545 787.162 460.892 786.535C461.239 785.907 461.473 785.173 461.593 784.333C461.726 783.478 461.793 782.564 461.793 781.59C461.793 780.629 461.726 779.728 461.593 778.887C461.473 778.033 461.239 777.292 460.892 776.665C460.545 776.038 460.065 775.544 459.451 775.184C458.837 774.823 458.049 774.643 457.088 774.643ZM478.169 774.743C478.609 774.076 479.063 773.495 479.53 773.001C480.011 772.494 480.518 772.074 481.052 771.74C481.599 771.393 482.193 771.14 482.833 770.979C483.487 770.806 484.208 770.719 484.996 770.719C485.876 770.719 486.657 770.819 487.338 771.02C488.019 771.206 488.606 771.487 489.1 771.86C489.593 772.221 490.007 772.674 490.341 773.222C490.688 773.756 490.961 774.363 491.162 775.043C491.348 775.724 491.482 776.465 491.562 777.266C491.655 778.053 491.702 778.907 491.702 779.828V792H486.217V778.247C486.217 777.099 485.95 776.225 485.416 775.624C484.896 775.023 484.181 774.723 483.274 774.723C482.767 774.723 482.266 774.843 481.772 775.083C481.292 775.324 480.825 775.644 480.371 776.044C479.917 776.431 479.497 776.872 479.11 777.366C478.723 777.86 478.376 778.36 478.069 778.867V792H472.583V779.167C472.583 778.086 472.57 777.186 472.543 776.465C472.53 775.731 472.497 775.083 472.443 774.523C472.417 774.243 472.39 773.996 472.363 773.782C472.337 773.569 472.303 773.362 472.263 773.162C472.236 772.961 472.196 772.761 472.143 772.561C472.103 772.347 472.05 772.107 471.983 771.84C472.85 771.613 473.711 771.413 474.565 771.24C475.433 771.053 476.307 770.879 477.188 770.719C477.281 771 477.368 771.28 477.448 771.56C477.528 771.827 477.595 772.121 477.648 772.441C477.702 772.748 477.749 773.088 477.789 773.462C477.829 773.836 477.869 774.263 477.909 774.743H478.169Z" fill="black"/>
</svg>
